<svg width="53" height="36" viewBox="0 0 53 36" fill="none" xmlns="http://www.w3.org/2000/svg">
<g clip-path="url(#clip0_3_2338)">
<path d="M0 0.926514H52.5001V35.9269H0V0.926514Z" fill="white"/>
<path d="M29.5313 0.926208H22.9688V15.1449H0V21.7074H22.9688V35.9261H29.5313V21.7074H52.5001V15.1449H29.5313V0.926208Z" fill="#D80027"/>
<path d="M40.3784 24.5131L52.5001 31.2474V24.5131H40.3784ZM31.9565 24.5131L52.5001 35.9261V32.6988L37.7659 24.5131H31.9565ZM47.028 35.9261L31.9565 27.5523V35.9261H47.028Z" fill="#0052B4"/>
<path d="M31.9565 24.5131L52.5001 35.9261V32.6988L37.7659 24.5131H31.9565Z" fill="white"/>
<path d="M31.9565 24.5131L52.5001 35.9261V32.6988L37.7659 24.5131H31.9565Z" fill="#D80027"/>
<path d="M9.26349 24.5129L0 29.6593V24.5129H9.26349ZM20.5435 25.9642V35.926H2.61383L20.5435 25.9642Z" fill="#0052B4"/>
<path d="M14.7342 24.5131L0 32.6988V35.9261L20.5435 24.5131H14.7342Z" fill="#D80027"/>
<path d="M12.1217 12.3392L0 5.60486V12.3392H12.1217ZM20.5435 12.3392L0 0.926208V4.15353L14.7342 12.3392H20.5435ZM5.47211 0.926208L20.5435 9.29997V0.926208H5.47211Z" fill="#0052B4"/>
<path d="M20.5435 12.3392L0 0.926208V4.15353L14.7342 12.3392H20.5435Z" fill="white"/>
<path d="M20.5435 12.3392L0 0.926208V4.15353L14.7342 12.3392H20.5435Z" fill="#D80027"/>
<path d="M43.2366 12.3395L52.5001 7.19301V12.3395H43.2366ZM31.9565 10.8881V0.926331H49.8862L31.9565 10.8881Z" fill="#0052B4"/>
<path d="M37.7659 12.3392L52.5001 4.15353V0.926208L31.9565 12.3392H37.7659Z" fill="#D80027"/>
</g>
<defs>
<clipPath id="clip0_3_2338">
<rect width="52.5001" height="35" fill="white" transform="translate(0 0.926514)"/>
</clipPath>
</defs>
</svg>
