<svg width="35" height="35" viewBox="0 0 35 35" fill="none" xmlns="http://www.w3.org/2000/svg">
<path d="M35 17.5C35 27.165 27.165 35 17.5 35C7.83502 35 0 27.165 0 17.5C0 7.83502 7.83502 0 17.5 0C27.165 0 35 7.83502 35 17.5Z" fill="#0052B5"/>
<path d="M13.125 9.625V0.551326C13.8376 0.367913 14.5678 0.228257 15.3125 0.135393C16.0291 0.0460323 16.7592 0 17.5 0C18.2408 0 18.9709 0.0460323 19.6875 0.135393C20.4322 0.228257 21.1624 0.367913 21.875 0.551327V12.0312L29.3125 4.58804C30.1142 5.32192 31.2836 6.78573 31.9375 7.65625L26.25 13.125H34.4487C34.6321 13.8376 34.7717 14.5678 34.8646 15.3125C34.954 16.0291 35 16.7592 35 17.5C35 18.2408 34.954 18.9709 34.8646 19.6875C34.7717 20.4322 34.6321 21.1624 34.4487 21.875H24.9375L31.5013 28C30.5606 29.2524 29.4558 30.3745 28.2188 31.3343L21.875 24.9375V34.4487C21.1624 34.6321 20.4322 34.7717 19.6875 34.8646C18.9709 34.954 18.2408 35 17.5 35C16.7592 35 16.0291 34.954 15.3125 34.8646C14.5678 34.7717 13.8376 34.6321 13.125 34.4487L13.125 23.1875L5.90625 30.6089C4.92725 29.7424 4.04604 28.7679 3.28125 27.7041L9.625 21.875H0.551326C0.367914 21.1624 0.228258 20.4322 0.135394 19.6875C0.0460326 18.9709 0 18.2408 0 17.5C0 16.7592 0.0460323 16.0291 0.135393 15.3125C0.228257 14.5678 0.367913 13.8376 0.551326 13.125H9.84375L3.5 6.99829C4.47095 5.70597 5.61667 4.55245 6.90206 3.57282L13.125 9.625Z" fill="white"/>
<path d="M13.125 13.125L5.1384 5.11287C4.71609 5.53432 4.3152 5.97723 3.9375 6.43982L10.9375 13.125H13.125Z" fill="#D90026"/>
<path d="M21.875 13.125L29.8616 5.11287C30.2839 5.53432 30.6848 5.97723 31.0625 6.43982L24.0625 13.125H21.875Z" fill="#D90026"/>
<path d="M21.875 22.0252L29.8616 30.0373C30.2839 29.6159 30.6848 29.173 31.0625 28.7104L24.0625 22.0252H21.875Z" fill="#D90026"/>
<path d="M13.125 22.0252L5.1384 30.0373C4.71609 29.6159 4.3152 29.173 3.9375 28.7104L10.9375 22.0252H13.125Z" fill="#D90026"/>
<path d="M0.135393 15.3125C0.0460323 16.0291 0 16.7592 0 17.5C0 18.2408 0.0460326 18.9709 0.135394 19.6875H15.3125V34.8646C16.0291 34.954 16.7592 35 17.5 35C18.2408 35 18.9709 34.954 19.6875 34.8646V19.6875H34.8646C34.954 18.9709 35 18.2408 35 17.5C35 16.7592 34.954 16.0291 34.8646 15.3125H19.6875V0.135393C18.8312 0.00659156 18.3922 0 17.5 0C16.7592 0 16.0291 0.0460323 15.3125 0.135393V15.3125H0.135393Z" fill="#D90026"/>
</svg>
