<svg width="380" height="118" viewBox="0 0 416 118" fill="none" xmlns="http://www.w3.org/2000/svg">
<path d="M22.6225 35.6057C23.0017 34.9118 23.9983 34.9118 24.3775 35.6057L29.5561 45.0818C29.7616 45.4578 30.1837 45.6611 30.6058 45.5873L41.2433 43.7278C42.0222 43.5917 42.6436 44.3708 42.3375 45.1L38.1576 55.057C37.9918 55.452 38.096 55.9089 38.4169 56.1928L46.503 63.3502C47.0951 63.8743 46.8734 64.8459 46.1125 65.0612L35.7216 68.0013C35.3094 68.118 35.0172 68.4843 34.9952 68.9122L34.441 79.6968C34.4004 80.4865 33.5025 80.9189 32.8598 80.4583L24.0825 74.1675C23.7343 73.9179 23.2657 73.9179 22.9175 74.1675L14.1402 80.4583C13.4975 80.9189 12.5996 80.4865 12.559 79.6968L12.0048 68.9122C11.9828 68.4843 11.6906 68.118 11.2784 68.0013L0.887534 65.0612C0.126616 64.8459 -0.0951414 63.8743 0.497005 63.3502L8.58314 56.1928C8.90398 55.9089 9.00824 55.452 8.8424 55.057L4.6625 45.1C4.35641 44.3708 4.97776 43.5917 5.75674 43.7278L16.3942 45.5873C16.8163 45.6611 17.2384 45.4578 17.4439 45.0818L22.6225 35.6057Z" fill="#23C686"/>
<path d="M85.876 39.667C83.2686 39.667 80.9541 40.1797 78.9326 41.2051C76.9404 42.2012 75.2559 43.6514 73.8789 45.5557C72.5312 47.46 71.5059 49.7598 70.8027 52.4551C70.0996 55.1504 69.748 58.1826 69.748 61.5518C69.748 66.0928 70.3047 69.9746 71.418 73.1973C72.5605 76.3906 74.3184 78.8369 76.6914 80.5361C79.0645 82.2061 82.126 83.041 85.876 83.041C88.4834 83.041 91.0908 82.748 93.6982 82.1621C96.335 81.5762 99.1914 80.7412 102.268 79.6572V91.083C99.4258 92.2549 96.6279 93.0898 93.874 93.5879C91.1201 94.1152 88.0293 94.3789 84.6016 94.3789C77.9805 94.3789 72.5312 93.0166 68.2539 90.292C64.0059 87.5381 60.8564 83.7002 58.8057 78.7783C56.7549 73.8271 55.7295 68.0557 55.7295 61.4639C55.7295 56.6006 56.3887 52.1475 57.707 48.1045C59.0254 44.0615 60.959 40.5605 63.5078 37.6016C66.0566 34.6426 69.2061 32.3574 72.9561 30.7461C76.7061 29.1348 81.0127 28.3291 85.876 28.3291C89.0693 28.3291 92.2627 28.7393 95.4561 29.5596C98.6787 30.3506 101.755 31.4492 104.685 32.8555L100.29 43.9297C97.8877 42.7871 95.4707 41.791 93.0391 40.9414C90.6074 40.0918 88.2197 39.667 85.876 39.667ZM159.572 68.8467C159.572 72.9482 159.016 76.5811 157.902 79.7451C156.818 82.9092 155.222 85.5898 153.112 87.7871C151.032 89.9551 148.513 91.5957 145.554 92.709C142.624 93.8223 139.313 94.3789 135.622 94.3789C132.165 94.3789 128.986 93.8223 126.086 92.709C123.215 91.5957 120.71 89.9551 118.571 87.7871C116.462 85.5898 114.821 82.9092 113.649 79.7451C112.507 76.5811 111.936 72.9482 111.936 68.8467C111.936 63.3975 112.902 58.7832 114.836 55.0039C116.77 51.2246 119.523 48.3535 123.098 46.3906C126.672 44.4277 130.935 43.4463 135.886 43.4463C140.485 43.4463 144.558 44.4277 148.103 46.3906C151.677 48.3535 154.475 51.2246 156.496 55.0039C158.547 58.7832 159.572 63.3975 159.572 68.8467ZM125.603 68.8467C125.603 72.0693 125.954 74.7793 126.657 76.9766C127.36 79.1738 128.459 80.8291 129.953 81.9424C131.447 83.0557 133.396 83.6123 135.798 83.6123C138.171 83.6123 140.09 83.0557 141.555 81.9424C143.049 80.8291 144.133 79.1738 144.807 76.9766C145.51 74.7793 145.861 72.0693 145.861 68.8467C145.861 65.5947 145.51 62.8994 144.807 60.7607C144.133 58.5928 143.049 56.9668 141.555 55.8828C140.061 54.7988 138.112 54.2568 135.71 54.2568C132.165 54.2568 129.587 55.4727 127.976 57.9043C126.394 60.3359 125.603 63.9834 125.603 68.8467ZM191.345 83.7002C192.81 83.7002 194.23 83.5537 195.607 83.2607C197.014 82.9678 198.405 82.6016 199.782 82.1621V92.1377C198.347 92.7822 196.56 93.3096 194.421 93.7197C192.312 94.1592 189.997 94.3789 187.478 94.3789C184.548 94.3789 181.911 93.9102 179.567 92.9727C177.253 92.0059 175.422 90.3506 174.074 88.0068C172.756 85.6338 172.097 82.3379 172.097 78.1191V54.4326H165.681V48.7637L173.063 44.2812L176.931 33.9102H185.5V44.3691H199.255V54.4326H185.5V78.1191C185.5 79.9941 186.027 81.4004 187.082 82.3379C188.166 83.2461 189.587 83.7002 191.345 83.7002ZM230.017 43.4463C234.558 43.4463 238.469 44.3252 241.75 46.083C245.031 47.8115 247.565 50.3311 249.353 53.6416C251.14 56.9521 252.033 60.9951 252.033 65.7705V72.2744H220.349C220.495 76.0537 221.623 79.0273 223.732 81.1953C225.871 83.334 228.83 84.4033 232.609 84.4033C235.744 84.4033 238.615 84.0811 241.223 83.4365C243.83 82.792 246.511 81.8252 249.265 80.5361V90.9072C246.833 92.1084 244.284 92.9873 241.618 93.5439C238.981 94.1006 235.773 94.3789 231.994 94.3789C227.072 94.3789 222.707 93.4707 218.898 91.6543C215.119 89.8379 212.146 87.0693 209.978 83.3486C207.839 79.6279 206.77 74.9404 206.77 69.2861C206.77 63.5439 207.736 58.7686 209.67 54.96C211.633 51.1221 214.357 48.251 217.844 46.3467C221.33 44.4131 225.388 43.4463 230.017 43.4463ZM230.104 52.9824C227.497 52.9824 225.329 53.8174 223.601 55.4873C221.901 57.1572 220.92 59.7793 220.656 63.3535H239.465C239.436 61.3613 239.069 59.5889 238.366 58.0361C237.692 56.4834 236.667 55.2529 235.29 54.3447C233.942 53.4365 232.214 52.9824 230.104 52.9824ZM300.988 93.5H263.986V29.252H300.988V40.4141H277.609V54.5205H299.362V65.6826H277.609V82.25H300.988V93.5ZM328.938 94.3789C323.459 94.3789 318.991 92.2402 315.534 87.9629C312.106 83.6562 310.393 77.3428 310.393 69.0225C310.393 60.6143 312.136 54.2568 315.622 49.9502C319.108 45.6143 323.664 43.4463 329.289 43.4463C331.633 43.4463 333.698 43.7686 335.485 44.4131C337.272 45.0576 338.811 45.9219 340.1 47.0059C341.418 48.0898 342.531 49.3057 343.439 50.6533H343.879C343.703 49.7158 343.483 48.3389 343.22 46.5225C342.985 44.6768 342.868 42.7871 342.868 40.8535V25.1211H356.315V93.5H346.032L343.439 87.1279H342.868C342.019 88.4756 340.949 89.7061 339.66 90.8193C338.4 91.9033 336.892 92.7676 335.134 93.4121C333.376 94.0566 331.311 94.3789 328.938 94.3789ZM333.64 83.7002C337.302 83.7002 339.88 82.6162 341.374 80.4482C342.897 78.251 343.703 74.9551 343.791 70.5605V69.1104C343.791 64.335 343.059 60.6875 341.594 58.168C340.129 55.6191 337.404 54.3447 333.42 54.3447C330.461 54.3447 328.146 55.6191 326.477 58.168C324.807 60.7168 323.972 64.3936 323.972 69.1982C323.972 74.0029 324.807 77.6211 326.477 80.0527C328.176 82.4844 330.563 83.7002 333.64 83.7002ZM415.422 44.3691V93.5H405.139L403.337 87.2158H402.634C401.579 88.8857 400.261 90.248 398.679 91.3027C397.097 92.3574 395.354 93.1338 393.449 93.6318C391.545 94.1299 389.567 94.3789 387.517 94.3789C384.001 94.3789 380.939 93.7637 378.332 92.5332C375.725 91.2734 373.688 89.3252 372.224 86.6885C370.788 84.0518 370.07 80.624 370.07 76.4053V44.3691H383.474V73.0654C383.474 76.5811 384.104 79.2324 385.363 81.0195C386.623 82.8066 388.63 83.7002 391.384 83.7002C394.108 83.7002 396.247 83.085 397.8 81.8545C399.353 80.5947 400.437 78.7637 401.052 76.3613C401.696 73.9297 402.019 70.9707 402.019 67.4844V44.3691H415.422Z" fill="black"/>
</svg>
