<svg width="107" height="37" viewBox="0 0 107 37" fill="none" xmlns="http://www.w3.org/2000/svg">
<path d="M8.12249 11.1057C8.50171 10.4118 9.49829 10.4118 9.87751 11.1057L10.9602 13.0869C11.1657 13.4629 11.5879 13.6662 12.0099 13.5924L14.234 13.2037C15.0129 13.0675 15.6343 13.8467 15.3282 14.5758L14.4543 16.6576C14.2884 17.0526 14.3927 17.5095 14.7135 17.7934L16.4041 19.2899C16.9963 19.814 16.7745 20.7856 16.0136 21.0009L13.8412 21.6156C13.4289 21.7323 13.1367 22.0986 13.1147 22.5265L12.9989 24.7813C12.9583 25.571 12.0604 26.0034 11.4176 25.5427L9.58254 24.2275C9.23429 23.9779 8.76571 23.9779 8.41746 24.2275L6.58236 25.5427C5.9396 26.0034 5.04172 25.571 5.00113 24.7813L4.88526 22.5265C4.86327 22.0986 4.57112 21.7323 4.15884 21.6156L1.98638 21.0009C1.22546 20.7856 1.0037 19.814 1.59585 19.2899L3.28646 17.7934C3.6073 17.5095 3.71156 17.0526 3.54571 16.6576L2.6718 14.5758C2.36571 13.8467 2.98706 13.0675 3.76604 13.2037L5.99007 13.5924C6.41214 13.6662 6.83431 13.4629 7.03978 13.0869L8.12249 11.1057Z" fill="#23C686"/>
<path d="M32.12 26.736C30.424 27.104 28.896 27.288 27.536 27.288C26.176 27.288 25.088 27.12 24.272 26.784C23.456 26.448 22.816 25.912 22.352 25.176C21.888 24.44 21.568 23.576 21.392 22.584C21.216 21.592 21.128 20.344 21.128 18.84C21.128 15.688 21.568 13.496 22.448 12.264C23.344 11.016 24.984 10.392 27.368 10.392C28.744 10.392 30.336 10.608 32.144 11.04L32.048 13.68C30.464 13.44 29.144 13.32 28.088 13.32C27.048 13.32 26.304 13.464 25.856 13.752C25.408 14.024 25.072 14.552 24.848 15.336C24.64 16.12 24.536 17.456 24.536 19.344C24.536 21.232 24.752 22.544 25.184 23.28C25.632 24 26.512 24.36 27.824 24.36C29.152 24.36 30.56 24.248 32.048 24.024L32.12 26.736ZM34.9798 16.368C35.8278 15.264 37.2438 14.712 39.2278 14.712C41.2118 14.712 42.6278 15.264 43.4758 16.368C44.3238 17.456 44.7478 18.992 44.7478 20.976C44.7478 25.184 42.9078 27.288 39.2278 27.288C35.5478 27.288 33.7078 25.184 33.7078 20.976C33.7078 18.992 34.1318 17.456 34.9798 16.368ZM37.4518 23.688C37.7878 24.264 38.3798 24.552 39.2278 24.552C40.0758 24.552 40.6598 24.264 40.9798 23.688C41.3158 23.112 41.4838 22.208 41.4838 20.976C41.4838 19.744 41.3158 18.848 40.9798 18.288C40.6598 17.728 40.0758 17.448 39.2278 17.448C38.3798 17.448 37.7878 17.728 37.4518 18.288C37.1318 18.848 36.9718 19.744 36.9718 20.976C36.9718 22.208 37.1318 23.112 37.4518 23.688ZM53.7532 17.736H50.8012V22.656C50.8012 23.136 50.8092 23.48 50.8252 23.688C50.8572 23.88 50.9452 24.048 51.0892 24.192C51.2492 24.336 51.4892 24.408 51.8092 24.408L53.6332 24.36L53.7772 26.928C52.7052 27.168 51.8892 27.288 51.3292 27.288C49.8892 27.288 48.9052 26.968 48.3772 26.328C47.8492 25.672 47.5852 24.472 47.5852 22.728V17.736H46.1692V15H47.5852V11.664H50.8012V15H53.7532V17.736ZM58.4874 22.368C58.5034 23.104 58.6954 23.64 59.0634 23.976C59.4474 24.296 59.9914 24.456 60.6954 24.456C62.1834 24.456 63.5114 24.408 64.6794 24.312L65.3514 24.24L65.3994 26.616C63.5594 27.064 61.8954 27.288 60.4074 27.288C58.5994 27.288 57.2874 26.808 56.4714 25.848C55.6554 24.888 55.2474 23.328 55.2474 21.168C55.2474 16.864 57.0154 14.712 60.5514 14.712C64.0394 14.712 65.7834 16.52 65.7834 20.136L65.5434 22.368H58.4874ZM62.6154 19.92C62.6154 18.96 62.4634 18.296 62.1594 17.928C61.8554 17.544 61.3194 17.352 60.5514 17.352C59.7994 17.352 59.2634 17.552 58.9434 17.952C58.6394 18.336 58.4794 18.992 58.4634 19.92H62.6154ZM68.3698 27V10.68H78.9297V13.56H71.6818V17.376H77.4898V20.208H71.6818V24.12H78.9297V27H68.3698ZM91.4536 10.2V27H88.2616V26.496C87.1416 27.024 86.1736 27.288 85.3576 27.288C83.6136 27.288 82.3976 26.784 81.7096 25.776C81.0216 24.768 80.6776 23.176 80.6776 21C80.6776 18.808 81.0856 17.216 81.9016 16.224C82.7336 15.216 83.9816 14.712 85.6456 14.712C86.1576 14.712 86.8696 14.792 87.7816 14.952L88.2376 15.048V10.2H91.4536ZM87.9016 24.12L88.2376 24.048V17.736C87.3576 17.576 86.5736 17.496 85.8856 17.496C84.5896 17.496 83.9416 18.648 83.9416 20.952C83.9416 22.2 84.0856 23.088 84.3736 23.616C84.6616 24.144 85.1336 24.408 85.7896 24.408C86.4616 24.408 87.1656 24.312 87.9016 24.12ZM101.506 15H104.722V27H101.53V26.328C100.378 26.968 99.3775 27.288 98.5295 27.288C96.8655 27.288 95.7455 26.832 95.1695 25.92C94.5935 24.992 94.3055 23.448 94.3055 21.288V15H97.5215V21.336C97.5215 22.52 97.6175 23.328 97.8095 23.76C98.0015 24.192 98.4655 24.408 99.2015 24.408C99.9055 24.408 100.57 24.296 101.194 24.072L101.506 23.976V15Z" fill="black"/>
</svg>
