<svg width="72" height="67" viewBox="0 0 72 67" fill="none" xmlns="http://www.w3.org/2000/svg">
<path d="M63.8354 29.8975C63.8354 45.2707 51.373 57.7331 35.9998 57.7331C20.6266 57.7331 8.1642 45.2707 8.1642 29.8975C8.1642 14.5243 20.6266 2.0619 35.9998 2.0619C51.373 2.0619 63.8354 14.5243 63.8354 29.8975Z" fill="#FFBB0D"/>
<path fill-rule="evenodd" clip-rule="evenodd" d="M65.8973 29.8975C65.8973 46.4095 52.5118 59.795 35.9998 59.795C19.4879 59.795 6.10231 46.4095 6.10231 29.8975C6.10231 13.3856 19.4879 0 35.9998 0C52.5118 0 65.8973 13.3856 65.8973 29.8975ZM35.9998 57.7331C51.373 57.7331 63.8354 45.2707 63.8354 29.8975C63.8354 14.5243 51.373 2.0619 35.9998 2.0619C20.6266 2.0619 8.1642 14.5243 8.1642 29.8975C8.1642 45.2707 20.6266 57.7331 35.9998 57.7331Z" fill="#E89B05"/>
<path fill-rule="evenodd" clip-rule="evenodd" d="M10.2261 30.9285C9.65672 30.9285 9.19515 30.4669 9.19515 29.8975C9.19515 15.0937 21.196 3.09284 35.9998 3.09284C36.5692 3.09284 37.0308 3.55442 37.0308 4.12379C37.0308 4.69317 36.5692 5.15474 35.9998 5.15474C22.3348 5.15474 11.257 16.2325 11.257 29.8975C11.257 30.4669 10.7955 30.9285 10.2261 30.9285Z" fill="#E8AA0A"/>
<path fill-rule="evenodd" clip-rule="evenodd" d="M61.7735 28.8666C62.3429 28.8666 62.8045 29.3281 62.8045 29.8975C62.8045 44.7013 50.8036 56.7022 35.9998 56.7022C35.4304 56.7022 34.9689 56.2406 34.9689 55.6712C34.9689 55.1019 35.4304 54.6403 35.9998 54.6403C49.6649 54.6403 60.7426 43.5626 60.7426 29.8975C60.7426 29.3281 61.2042 28.8666 61.7735 28.8666Z" fill="#E8AA0A"/>
<path d="M56.6188 29.8975C56.6188 41.2851 47.3874 50.5165 35.9998 50.5165C24.6123 50.5165 15.3808 41.2851 15.3808 29.8975C15.3808 18.51 24.6123 9.27854 35.9998 9.27854C47.3874 9.27854 56.6188 18.51 56.6188 29.8975Z" fill="#FFDD28"/>
<path fill-rule="evenodd" clip-rule="evenodd" d="M58.6807 29.8975C58.6807 42.4238 48.5261 52.5784 35.9998 52.5784C23.4735 52.5784 13.3189 42.4238 13.3189 29.8975C13.3189 17.3712 23.4735 7.21664 35.9998 7.21664C48.5261 7.21664 58.6807 17.3712 58.6807 29.8975ZM35.9998 50.5165C47.3874 50.5165 56.6188 41.2851 56.6188 29.8975C56.6188 18.51 47.3874 9.27854 35.9998 9.27854C24.6123 9.27854 15.3808 18.51 15.3808 29.8975C15.3808 41.2851 24.6123 50.5165 35.9998 50.5165Z" fill="#E89B05"/>
<path fill-rule="evenodd" clip-rule="evenodd" d="M35.9998 47.4236C45.6792 47.4236 53.5259 39.5769 53.5259 29.8975C53.5259 29.3281 53.9875 28.8666 54.5569 28.8666C55.1263 28.8666 55.5878 29.3281 55.5878 29.8975C55.5878 40.7157 46.818 49.4855 35.9998 49.4855C35.4304 49.4855 34.9689 49.024 34.9689 48.4546C34.9689 47.8852 35.4304 47.4236 35.9998 47.4236Z" fill="#ECC704"/>
<path fill-rule="evenodd" clip-rule="evenodd" d="M35.9998 12.3714C26.3204 12.3714 18.4737 20.2181 18.4737 29.8975C18.4737 30.4669 18.0121 30.9285 17.4427 30.9285C16.8734 30.9285 16.4118 30.4669 16.4118 29.8975C16.4118 19.0793 25.1817 10.3095 35.9998 10.3095C36.5692 10.3095 37.0308 10.7711 37.0308 11.3404C37.0308 11.9098 36.5692 12.3714 35.9998 12.3714Z" fill="#FFEF9C"/>
<path d="M4.49043 57.3441L1.83493 52.0331C1.54574 51.4547 1.96631 50.7742 2.61296 50.7742H14.2534C14.7338 50.7742 15.1233 51.1637 15.1233 51.6441V63.8222C15.1233 64.3026 14.7338 64.692 14.2534 64.692H2.61295C1.96631 64.692 1.54574 64.0115 1.83493 63.4332L4.49043 58.1221C4.61288 57.8772 4.61288 57.589 4.49043 57.3441Z" fill="#C52229"/>
<path d="M67.5096 57.3441L70.1651 52.0331C70.4543 51.4547 70.0337 50.7742 69.387 50.7742H57.7466C57.2662 50.7742 56.8767 51.1637 56.8767 51.6441V63.8222C56.8767 64.3026 57.2662 64.692 57.7466 64.692H69.387C70.0337 64.692 70.4543 64.0115 70.1651 63.4332L67.5096 58.1221C67.3871 57.8773 67.3871 57.589 67.5096 57.3441Z" fill="#C52229"/>
<path fill-rule="evenodd" clip-rule="evenodd" d="M2.73987 57.7331L0.278868 52.8111C-0.588685 51.076 0.673019 49.0345 2.61296 49.0345H14.2534C15.6947 49.0345 16.863 50.2029 16.863 51.6441V63.8222C16.863 65.2634 15.6947 66.4318 14.2534 66.4318H2.61295C0.673018 66.4318 -0.588685 64.3902 0.278868 62.6551L2.73987 57.7331ZM69.2601 57.7331L71.7211 52.8111C72.5887 51.076 71.327 49.0345 69.387 49.0345H57.7466C56.3053 49.0345 55.137 50.2029 55.137 51.6441V63.8222C55.137 65.2634 56.3053 66.4318 57.7466 66.4318H69.387C71.327 66.4318 72.5887 64.3902 71.7211 62.6551L69.2601 57.7331ZM70.1651 52.0331L67.5096 57.3441C67.3871 57.589 67.3871 57.8773 67.5096 58.1221L70.1651 63.4332C70.4543 64.0115 70.0337 64.692 69.387 64.692H57.7466C57.2662 64.692 56.8767 64.3026 56.8767 63.8222V51.6441C56.8767 51.1637 57.2662 50.7742 57.7466 50.7742H69.387C70.0337 50.7742 70.4543 51.4547 70.1651 52.0331ZM1.83493 52.0331L4.49043 57.3441C4.61288 57.589 4.61288 57.8772 4.49043 58.1221L1.83493 63.4332C1.54574 64.0115 1.96631 64.692 2.61295 64.692H14.2534C14.7338 64.692 15.1233 64.3026 15.1233 63.8222V51.6441C15.1233 51.1637 14.7338 50.7742 14.2534 50.7742H2.61296C1.96631 50.7742 1.54574 51.4547 1.83493 52.0331Z" fill="#9B0F15"/>
<path fill-rule="evenodd" clip-rule="evenodd" d="M3.07917 51.5609C3.23846 51.3081 3.51631 51.1548 3.81508 51.1548H7.51199C7.9924 51.1548 8.38186 51.5442 8.38186 52.0247C8.38186 52.5051 7.9924 52.8945 7.51199 52.8945H5.19532L6.99193 56.6511C7.19921 57.0844 7.0159 57.6038 6.58251 57.8111C6.14911 58.0184 5.62974 57.8351 5.42247 57.4017L3.03034 52.4C2.90144 52.1304 2.91987 51.8136 3.07917 51.5609Z" fill="#DF3840"/>
<path d="M60.3562 60.3427V48.1646C60.3562 47.6842 59.9667 47.2948 59.4863 47.2948L12.5137 47.2948C12.0333 47.2948 11.6438 47.6842 11.6438 48.1646V60.3427C11.6438 60.8231 12.0333 61.2126 12.5137 61.2126L59.4863 61.2126C59.9667 61.2126 60.3562 60.8231 60.3562 60.3427Z" fill="#F1333B"/>
<path fill-rule="evenodd" clip-rule="evenodd" d="M62.0959 48.1646V60.3427C62.0959 61.784 60.9275 62.9523 59.4863 62.9523H12.5137C11.0725 62.9523 9.90411 61.784 9.90411 60.3427L9.90412 48.1646C9.90412 46.7234 11.0725 45.555 12.5137 45.555L59.4863 45.555C60.9275 45.555 62.0959 46.7234 62.0959 48.1646ZM60.3562 48.1646V60.3427C60.3562 60.8231 59.9667 61.2126 59.4863 61.2126L12.5137 61.2126C12.0333 61.2126 11.6438 60.8231 11.6438 60.3427V48.1646C11.6438 47.6842 12.0333 47.2948 12.5137 47.2948L59.4863 47.2948C59.9667 47.2948 60.3562 47.6842 60.3562 48.1646Z" fill="#9B0F15"/>
<path d="M57.953 54.584C57.4604 54.584 57.0611 54.1944 57.0611 53.7139C57.0611 53.2333 57.4604 52.8438 57.953 52.8438C58.4456 52.8438 58.8449 53.2333 58.8449 53.7139C58.8449 54.1944 58.4456 54.584 57.953 54.584Z" fill="#DB1B24"/>
<path d="M54.5595 54.2359C53.9468 54.2359 53.4501 53.7513 53.4501 53.1535C53.4501 52.5558 53.9468 52.0712 54.5595 52.0712C55.1722 52.0712 55.6689 52.5558 55.6689 53.1535C55.6689 53.7513 55.1722 54.2359 54.5595 54.2359Z" fill="#DB1B24"/>
<path d="M56.0714 56.7105C55.765 56.7105 55.5167 56.4682 55.5167 56.1693C55.5167 55.8704 55.765 55.6282 56.0714 55.6282C56.3777 55.6282 56.6261 55.8704 56.6261 56.1693C56.6261 56.4682 56.3777 56.7105 56.0714 56.7105Z" fill="#DB1B24"/>
<path d="M55.1142 50.9867C54.8079 50.9867 54.5595 50.7444 54.5595 50.4455C54.5595 50.1467 54.8079 49.9044 55.1142 49.9044C55.4206 49.9044 55.6689 50.1467 55.6689 50.4455C55.6689 50.7444 55.4206 50.9867 55.1142 50.9867Z" fill="#DB1B24"/>
<path d="M52.1993 56.1693C51.8929 56.1693 51.6446 55.927 51.6446 55.6281C51.6446 55.3293 51.8929 55.087 52.1993 55.087C52.5057 55.087 52.754 55.3293 52.754 55.6281C52.754 55.927 52.5057 56.1693 52.1993 56.1693Z" fill="#DB1B24"/>
<path d="M51.6446 53.3849C51.3382 53.3849 51.0899 53.1426 51.0899 52.8438C51.0899 52.5449 51.3382 52.3026 51.6446 52.3026C51.9509 52.3026 52.1993 52.5449 52.1993 52.8438C52.1993 53.1426 51.9509 53.3849 51.6446 53.3849Z" fill="#DB1B24"/>
<path d="M47.8629 59.6626C47.5566 59.6626 47.3082 59.4203 47.3082 59.1214C47.3082 58.8225 47.5566 58.5802 47.8629 58.5802C48.1693 58.5802 48.4176 58.8225 48.4176 59.1214C48.4176 59.4203 48.1693 59.6626 47.8629 59.6626Z" fill="#DB1B24"/>
<path d="M58.8993 57.5966C58.593 57.5966 58.3446 57.3543 58.3446 57.0555C58.3446 56.7566 58.593 56.5143 58.8993 56.5143C59.2057 56.5143 59.454 56.7566 59.454 57.0555C59.454 57.3543 59.2057 57.5966 58.8993 57.5966Z" fill="#DB1B24"/>
<path d="M53.6568 58.7818C53.1582 58.7818 52.754 58.3875 52.754 57.9011C52.754 57.4147 53.1582 57.0204 53.6568 57.0204C54.1553 57.0204 54.5595 57.4147 54.5595 57.9011C54.5595 58.3875 54.1553 58.7818 53.6568 58.7818Z" fill="#DB1B24"/>
<path d="M57.5288 59.6625C57.0302 59.6625 56.6261 59.2682 56.6261 58.7818C56.6261 58.2954 57.0302 57.9011 57.5288 57.9011C58.0274 57.9011 58.4316 58.2954 58.4316 58.7818C58.4316 59.2682 58.0274 59.6625 57.5288 59.6625Z" fill="#DB1B24"/>
<path d="M49.6324 57.9308C49.1339 57.9308 48.7297 57.5365 48.7297 57.0501C48.7297 56.5637 49.1339 56.1693 49.6324 56.1693C50.131 56.1693 50.5352 56.5637 50.5352 57.0501C50.5352 57.5365 50.131 57.9308 49.6324 57.9308Z" fill="#DB1B24"/>
<path d="M51.0899 59.93C50.7835 59.93 50.5352 59.6877 50.5352 59.3888C50.5352 59.0899 50.7835 58.8476 51.0899 58.8476C51.3962 58.8476 51.6446 59.0899 51.6446 59.3888C51.6446 59.6877 51.3962 59.93 51.0899 59.93Z" fill="#DB1B24"/>
<path fill-rule="evenodd" clip-rule="evenodd" d="M12.1875 48.5452C12.1875 48.0648 12.577 47.6753 13.0574 47.6753H45.6772C46.1576 47.6753 46.5471 48.0648 46.5471 48.5452C46.5471 49.0256 46.1576 49.4151 45.6772 49.4151H13.9272V55.5041C13.9272 55.9845 13.5378 56.374 13.0574 56.374C12.577 56.374 12.1875 55.9845 12.1875 55.5041V48.5452Z" fill="#FE666D"/>
<path d="M38.2297 37.3719H35.0655V25.1749L31.2882 26.3465V23.7735L37.8903 21.4085H38.2297V37.3719Z" fill="#FFEF9C"/>
<path fill-rule="evenodd" clip-rule="evenodd" d="M40.0983 37.3719C40.0983 38.4039 39.2617 39.2405 38.2297 39.2405H35.0655C34.0335 39.2405 33.1969 38.4039 33.1969 37.3719V27.7109L31.8417 28.1312C31.2746 28.3071 30.6577 28.203 30.1797 27.8508C29.7017 27.4986 29.4196 26.9402 29.4196 26.3465V23.7735C29.4196 22.9844 29.9152 22.2804 30.658 22.0143L37.2601 19.6494C37.4623 19.577 37.6755 19.54 37.8903 19.54H38.2297C39.2617 19.54 40.0983 20.3766 40.0983 21.4085V37.3719ZM35.0655 25.1749V37.3719H38.2297V21.4085H37.8903L31.2882 23.7735V26.3465L35.0655 25.1749Z" fill="#E89B05"/>
</svg>
