<svg width="65" height="65" viewBox="0 0 65 65" fill="none" xmlns="http://www.w3.org/2000/svg">
<path d="M65 41.7833L60.5572 39.1384V42.159L65 43.277V41.7833Z" fill="#A50E0E"/>
<path d="M0 41.7833L4.4432 39.1384V42.159L0 43.277V41.7833Z" fill="#A50E0E"/>
<path d="M4.44318 16.25V48.75L32.5002 65L60.5572 48.75V16.25L32.5002 0L4.44318 16.25Z" fill="#ECB20C"/>
<path d="M22.3135 26.8895L32.5002 7.00862V0L4.44318 16.25L22.3135 26.8895Z" fill="url(#paint0_linear_1_153)"/>
<path d="M45.7736 39.1384L32.5002 57.9914V65L60.5572 48.75L54.5063 45.2455L45.7736 39.1384Z" fill="url(#paint1_linear_1_153)"/>
<path d="M32.015 49.6681L10.4936 45.2455L4.44318 48.75L32.5002 65V57.9914L32.015 49.6681Z" fill="url(#paint2_linear_1_153)"/>
<path d="M32.9796 15.6276L54.5063 19.7545L60.5572 16.25L32.5002 0V7.00862L32.9796 15.6276Z" fill="url(#paint3_linear_1_153)"/>
<path d="M23.2834 38.2788L11.402 20.3268L4.44318 16.25V48.75L10.4936 45.2455L23.2834 38.2788Z" fill="url(#paint4_linear_1_153)"/>
<path d="M41.7166 38.2788L53.598 20.3268L60.5572 16.25V48.75L54.5064 45.2455L41.7166 38.2788Z" fill="url(#paint5_linear_1_153)"/>
<path d="M10.4937 19.7545V45.2455L32.5002 57.9914L54.5063 45.2455V19.7545L32.5002 7.00864L10.4937 19.7545Z" fill="url(#paint6_linear_1_153)"/>
<path d="M21.0478 50.5443H2.7949C1.25134 50.5443 0 49.4143 0 48.0204V41.5997H18.0265C19.695 41.5997 21.0478 42.821 21.0478 44.328V50.5443V50.5443Z" fill="url(#paint7_linear_1_153)"/>
<path d="M62.2051 51.1033H43.9522V44.8871C43.9522 43.3804 45.3047 42.1587 46.9735 42.1587H65V48.5794C65 49.9733 63.7487 51.1033 62.2051 51.1033Z" fill="url(#paint8_linear_1_153)"/>
<path d="M49.5525 55.5756H15.4476C14.6087 55.5756 13.9288 54.9614 13.9288 54.2041V44.6485C13.9288 43.8909 14.609 43.277 15.4476 43.277H49.5529C50.3918 43.277 51.0716 43.8912 51.0716 44.6485V54.2041C51.0716 54.9617 50.3914 55.5756 49.5525 55.5756Z" fill="url(#paint9_linear_1_153)"/>
<path d="M32.5002 58.371C37.9705 58.371 42.405 54.3663 42.405 49.4263C42.405 44.4863 37.9705 40.4817 32.5002 40.4817C27.0298 40.4817 22.5953 44.4863 22.5953 49.4263C22.5953 54.3663 27.0298 58.371 32.5002 58.371Z" fill="#F6F6F8"/>
<path d="M32.5002 56.6771C36.9346 56.6771 40.5293 53.4308 40.5293 49.4263C40.5293 45.4219 36.9346 42.1756 32.5002 42.1756C28.0658 42.1756 24.4711 45.4219 24.4711 49.4263C24.4711 53.4308 28.0658 56.6771 32.5002 56.6771Z" fill="#FFE066"/>
<path d="M32.5002 44.0105L34.4486 47.5761L38.8062 48.1477L35.6532 50.9232L36.3974 54.8421L32.5002 52.9919L28.6026 54.8421L29.3472 50.9232L26.1942 48.1477L30.5514 47.5761L32.5002 44.0105Z" fill="#FCC11A"/>
<path d="M32.5002 44.0105L32.7536 49.3116L34.4486 47.5761L36.6274 47.8617L38.8062 48.1477L32.7536 49.3116L35.6532 50.9232L36.0253 52.8827L36.3974 54.8421L32.7536 49.3116L32.5002 52.9919L30.5514 53.9171L28.6026 54.8421L32.7536 49.3116L29.3472 50.9232L27.7705 49.5355L26.1942 48.1477L32.7536 49.3116L30.5514 47.5761L31.5256 45.7931L32.5002 44.0105Z" fill="#F38B00"/>
<path d="M26.2842 32.6891H30.4632V22.5855H26.8395V19.9579C28.956 19.5998 30.3308 19.122 31.7063 18.3576H35.1713V32.6895H38.7155V36.1296H26.2842V32.6891Z" fill="#F28500"/>
<path d="M16.5474 19.8422L17.0782 17.9244C17.1462 17.6784 17.2873 17.4535 17.486 17.2741C17.6846 17.0947 17.9337 16.9673 18.2061 16.9059L20.3298 16.4265C20.387 16.4135 20.387 16.34 20.3298 16.3274L18.2061 15.848C17.9337 15.7866 17.6846 15.6592 17.486 15.4798C17.2873 15.3004 17.1462 15.0755 17.0782 14.8294L16.5474 12.9116C16.533 12.8599 16.4516 12.8599 16.4376 12.9116L15.9068 14.8294C15.8387 15.0755 15.6977 15.3004 15.499 15.4798C15.3003 15.6592 15.0513 15.7866 14.7789 15.848L12.6552 16.3274C12.5979 16.3404 12.5979 16.4138 12.6552 16.4265L14.7789 16.9059C15.0513 16.9673 15.3003 17.0947 15.499 17.2741C15.6977 17.4535 15.8387 17.6784 15.9068 17.9244L16.4376 19.8422C16.452 19.8939 16.5333 19.8939 16.5474 19.8422Z" fill="white"/>
<path d="M54.3696 40.8782L54.7676 39.4397C54.8187 39.2551 54.9245 39.0865 55.0735 38.9519C55.2225 38.8174 55.4093 38.7218 55.6137 38.6757L57.2066 38.3159C57.2494 38.3061 57.2494 38.2512 57.2066 38.2415L55.6137 37.8817C55.4093 37.8355 55.2225 37.74 55.0735 37.6054C54.9245 37.4709 54.8187 37.3022 54.7676 37.1176L54.3696 35.6792C54.3588 35.6405 54.298 35.6405 54.2872 35.6792L53.8891 37.1176C53.838 37.3022 53.7322 37.4709 53.5832 37.6054C53.4342 37.74 53.2474 37.8355 53.043 37.8817L51.4501 38.2415C51.4073 38.2512 51.4073 38.3061 51.4501 38.3159L53.043 38.6757C53.2474 38.7218 53.4342 38.8174 53.5832 38.9519C53.7322 39.0865 53.838 39.2551 53.8891 39.4397L54.2872 40.8782C54.298 40.9169 54.3588 40.9169 54.3696 40.8782Z" fill="white"/>
<defs>
<linearGradient id="paint0_linear_1_153" x1="18.5603" y1="8.22406" x2="22.24" y2="13.2588" gradientUnits="userSpaceOnUse">
<stop stop-color="#FFE622"/>
<stop offset="1" stop-color="#FCC523"/>
</linearGradient>
<linearGradient id="paint1_linear_1_153" x1="45.6617" y1="55.757" x2="43.0549" y2="51.3242" gradientUnits="userSpaceOnUse">
<stop stop-color="#FFE622"/>
<stop offset="1" stop-color="#FCC523"/>
</linearGradient>
<linearGradient id="paint2_linear_1_153" x1="18.0913" y1="57.2372" x2="22.5878" y2="51.9853" gradientUnits="userSpaceOnUse">
<stop stop-color="#F38600"/>
<stop offset="1" stop-color="#EDA416"/>
</linearGradient>
<linearGradient id="paint3_linear_1_153" x1="46.7965" y1="7.88189" x2="42.3048" y2="13.1917" gradientUnits="userSpaceOnUse">
<stop stop-color="#F38600"/>
<stop offset="1" stop-color="#EDA416"/>
</linearGradient>
<linearGradient id="paint4_linear_1_153" x1="4.44303" y1="32.5" x2="11.3741" y2="32.5" gradientUnits="userSpaceOnUse">
<stop stop-color="#EDB516"/>
<stop offset="1" stop-color="#FCC616"/>
</linearGradient>
<linearGradient id="paint5_linear_1_153" x1="60.5572" y1="32.5" x2="53.6261" y2="32.5" gradientUnits="userSpaceOnUse">
<stop stop-color="#EDB516"/>
<stop offset="1" stop-color="#FCC616"/>
</linearGradient>
<linearGradient id="paint6_linear_1_153" x1="32.5" y1="57.9913" x2="32.5" y2="7.00873" gradientUnits="userSpaceOnUse">
<stop stop-color="#FFD12D"/>
<stop offset="1" stop-color="#FCED6F"/>
</linearGradient>
<linearGradient id="paint7_linear_1_153" x1="0" y1="46.0721" x2="21.0476" y2="46.0721" gradientUnits="userSpaceOnUse">
<stop stop-color="#BE4244"/>
<stop offset="1" stop-color="#D33730"/>
</linearGradient>
<linearGradient id="paint8_linear_1_153" x1="43.9524" y1="46.6311" x2="65.0001" y2="46.6311" gradientUnits="userSpaceOnUse">
<stop stop-color="#BE4244"/>
<stop offset="1" stop-color="#D33730"/>
</linearGradient>
<linearGradient id="paint9_linear_1_153" x1="32.5001" y1="55.5757" x2="32.5001" y2="43.2769" gradientUnits="userSpaceOnUse">
<stop stop-color="#FF544A"/>
<stop offset="1" stop-color="#F7726E"/>
</linearGradient>
</defs>
</svg>
