<svg width="46" height="43" viewBox="0 0 46 43" fill="none" xmlns="http://www.w3.org/2000/svg">
<path d="M40.704 19.0638C40.704 28.8664 32.7574 36.8129 22.9549 36.8129C13.1523 36.8129 5.20581 28.8664 5.20581 19.0638C5.20581 9.26127 13.1523 1.31475 22.9549 1.31475C32.7574 1.31475 40.704 9.26127 40.704 19.0638Z" fill="#BCCCD2"/>
<path fill-rule="evenodd" clip-rule="evenodd" d="M42.0187 19.0638C42.0187 29.5925 33.4835 38.1276 22.9549 38.1276C12.4262 38.1276 3.89107 29.5925 3.89107 19.0638C3.89107 8.53516 12.4262 0 22.9549 0C33.4835 0 42.0187 8.53516 42.0187 19.0638ZM22.9549 36.8129C32.7574 36.8129 40.704 28.8664 40.704 19.0638C40.704 9.26127 32.7574 1.31475 22.9549 1.31475C13.1523 1.31475 5.20581 9.26127 5.20581 19.0638C5.20581 28.8664 13.1523 36.8129 22.9549 36.8129Z" fill="#81A5B0"/>
<path fill-rule="evenodd" clip-rule="evenodd" d="M6.52056 19.7212C6.1575 19.7212 5.86319 19.4269 5.86319 19.0638C5.86319 9.62433 13.5154 1.97212 22.9549 1.97212C23.3179 1.97212 23.6123 2.26643 23.6123 2.62949C23.6123 2.99255 23.3179 3.28686 22.9549 3.28686C14.2415 3.28686 7.17793 10.3504 7.17793 19.0638C7.17793 19.4269 6.88362 19.7212 6.52056 19.7212Z" fill="#D0DEE3"/>
<path fill-rule="evenodd" clip-rule="evenodd" d="M39.3892 18.4064C39.7523 18.4064 40.0466 18.7008 40.0466 19.0638C40.0466 28.5033 32.3944 36.1555 22.9549 36.1555C22.5918 36.1555 22.2975 35.8612 22.2975 35.4981C22.2975 35.1351 22.5918 34.8408 22.9549 34.8408C31.6683 34.8408 38.7318 27.7772 38.7318 19.0638C38.7318 18.7008 39.0261 18.4064 39.3892 18.4064Z" fill="#A2B9C1"/>
<path d="M36.1023 19.0638C36.1023 26.325 30.216 32.2113 22.9549 32.2113C15.6937 32.2113 9.80743 26.325 9.80743 19.0638C9.80743 11.8027 15.6937 5.91636 22.9549 5.91636C30.216 5.91636 36.1023 11.8027 36.1023 19.0638Z" fill="#C7D4D8"/>
<path fill-rule="evenodd" clip-rule="evenodd" d="M37.4171 19.0638C37.4171 27.0511 30.9421 33.526 22.9549 33.526C14.9676 33.526 8.49268 27.0511 8.49268 19.0638C8.49268 11.0766 14.9676 4.60161 22.9549 4.60161C30.9421 4.60161 37.4171 11.0766 37.4171 19.0638ZM22.9549 32.2113C30.216 32.2113 36.1023 26.325 36.1023 19.0638C36.1023 11.8027 30.216 5.91636 22.9549 5.91636C15.6937 5.91636 9.80743 11.8027 9.80743 19.0638C9.80743 26.325 15.6937 32.2113 22.9549 32.2113Z" fill="#81A5B0"/>
<path fill-rule="evenodd" clip-rule="evenodd" d="M22.9549 30.2392C29.1269 30.2392 34.1302 25.2358 34.1302 19.0638C34.1302 18.7008 34.4245 18.4064 34.7876 18.4064C35.1507 18.4064 35.445 18.7008 35.445 19.0638C35.445 25.9619 29.853 31.5539 22.9549 31.5539C22.5918 31.5539 22.2975 31.2596 22.2975 30.8965C22.2975 30.5335 22.5918 30.2392 22.9549 30.2392Z" fill="#B5C3C8"/>
<path fill-rule="evenodd" clip-rule="evenodd" d="M22.9549 7.88848C16.7829 7.88848 11.7795 12.8918 11.7795 19.0638C11.7795 19.4269 11.4852 19.7212 11.1222 19.7212C10.7591 19.7212 10.4648 19.4269 10.4648 19.0638C10.4648 12.1657 16.0568 6.57373 22.9549 6.57373C23.3179 6.57373 23.6123 6.86805 23.6123 7.2311C23.6123 7.59416 23.3179 7.88848 22.9549 7.88848Z" fill="#D9EAEF"/>
<path d="M2.86327 36.5648L1.17002 33.1783C0.985625 32.8095 1.2538 32.3756 1.66612 32.3756H9.08854C9.39487 32.3756 9.6432 32.6239 9.6432 32.9303V40.6955C9.6432 41.0018 9.39487 41.2502 9.08854 41.2502H1.66612C1.2538 41.2502 0.985625 40.8162 1.17002 40.4474L2.86327 37.0609C2.94135 36.9048 2.94135 36.721 2.86327 36.5648Z" fill="#C52229"/>
<path d="M43.0467 36.5648L44.74 33.1783C44.9244 32.8095 44.6562 32.3756 44.2439 32.3756H36.8215C36.5151 32.3756 36.2668 32.6239 36.2668 32.9303V40.6955C36.2668 41.0018 36.5151 41.2502 36.8215 41.2502H44.2439C44.6562 41.2502 44.9244 40.8162 44.74 40.4474L43.0467 37.0609C42.9687 36.9048 42.9687 36.721 43.0467 36.5648Z" fill="#C52229"/>
<path fill-rule="evenodd" clip-rule="evenodd" d="M1.74704 36.8129L0.177817 33.6744C-0.375368 32.5681 0.429143 31.2663 1.66612 31.2663H9.08854C10.0075 31.2663 10.7525 32.0113 10.7525 32.9303V40.6955C10.7525 41.6145 10.0075 42.3595 9.08854 42.3595H1.66612C0.429142 42.3595 -0.375369 41.0577 0.177817 39.9513L1.74704 36.8129ZM44.163 36.8129L45.7322 33.6744C46.2854 32.5681 45.4809 31.2663 44.2439 31.2663H36.8215C35.9025 31.2663 35.1575 32.0113 35.1575 32.9303V40.6955C35.1575 41.6145 35.9025 42.3595 36.8215 42.3595H44.2439C45.4809 42.3595 46.2854 41.0577 45.7322 39.9513L44.163 36.8129ZM44.74 33.1783L43.0467 36.5648C42.9687 36.721 42.9687 36.9048 43.0467 37.0609L44.74 40.4474C44.9244 40.8162 44.6562 41.2502 44.2439 41.2502H36.8215C36.5151 41.2502 36.2668 41.0018 36.2668 40.6955V32.9303C36.2668 32.6239 36.5151 32.3756 36.8215 32.3756H44.2439C44.6562 32.3756 44.9244 32.8095 44.74 33.1783ZM1.17002 33.1783L2.86327 36.5648C2.94135 36.721 2.94135 36.9048 2.86327 37.0609L1.17002 40.4474C0.985625 40.8162 1.2538 41.2502 1.66612 41.2502H9.08854C9.39487 41.2502 9.6432 41.0018 9.6432 40.6955V32.9303C9.6432 32.6239 9.39487 32.3756 9.08854 32.3756H1.66612C1.2538 32.3756 0.985625 32.8095 1.17002 33.1783Z" fill="#9B0F15"/>
<path fill-rule="evenodd" clip-rule="evenodd" d="M1.9634 32.8772C2.06497 32.716 2.24214 32.6183 2.43264 32.6183H4.78994C5.09627 32.6183 5.3446 32.8666 5.3446 33.1729C5.3446 33.4793 5.09627 33.7276 4.78994 33.7276H3.31274L4.45833 36.1229C4.5905 36.3993 4.47361 36.7304 4.19726 36.8626C3.92091 36.9948 3.58974 36.8779 3.45758 36.6015L1.93226 33.4123C1.85007 33.2404 1.86183 33.0384 1.9634 32.8772Z" fill="#DF3840"/>
<path d="M38.4854 38.4769V30.7116C38.4854 30.4053 38.2371 30.157 37.9308 30.157L7.97922 30.157C7.6729 30.157 7.42457 30.4053 7.42457 30.7116L7.42457 38.4769C7.42457 38.7832 7.67289 39.0315 7.97922 39.0315L37.9308 39.0315C38.2371 39.0315 38.4854 38.7832 38.4854 38.4769Z" fill="#F1333B"/>
<path fill-rule="evenodd" clip-rule="evenodd" d="M39.5948 30.7116V38.4769C39.5948 39.3959 38.8498 40.1408 37.9308 40.1408H7.97922C7.06024 40.1408 6.31525 39.3958 6.31525 38.4769L6.31525 30.7116C6.31525 29.7927 7.06024 29.0477 7.97922 29.0477L37.9308 29.0477C38.8498 29.0477 39.5948 29.7927 39.5948 30.7116ZM38.4854 30.7116V38.4769C38.4854 38.7832 38.2371 39.0315 37.9308 39.0315L7.97922 39.0315C7.67289 39.0315 7.42457 38.7832 7.42457 38.4769L7.42457 30.7116C7.42457 30.4053 7.6729 30.157 7.97922 30.157L37.9308 30.157C38.2371 30.157 38.4854 30.4053 38.4854 30.7116Z" fill="#9B0F15"/>
<path d="M36.9531 34.8049C36.639 34.8049 36.3844 34.5565 36.3844 34.2501C36.3844 33.9436 36.639 33.6952 36.9531 33.6952C37.2672 33.6952 37.5218 33.9436 37.5218 34.2501C37.5218 34.5565 37.2672 34.8049 36.9531 34.8049Z" fill="#DB1B24"/>
<path d="M34.7893 34.5829C34.3986 34.5829 34.0819 34.2739 34.0819 33.8928C34.0819 33.5116 34.3986 33.2026 34.7893 33.2026C35.18 33.2026 35.4967 33.5116 35.4967 33.8928C35.4967 34.2739 35.18 34.5829 34.7893 34.5829Z" fill="#DB1B24"/>
<path d="M35.7533 36.1608C35.5579 36.1608 35.3996 36.0063 35.3996 35.8157C35.3996 35.6252 35.5579 35.4707 35.7533 35.4707C35.9486 35.4707 36.107 35.6252 36.107 35.8157C36.107 36.0063 35.9486 36.1608 35.7533 36.1608Z" fill="#DB1B24"/>
<path d="M35.143 32.5111C34.9476 32.5111 34.7893 32.3566 34.7893 32.166C34.7893 31.9755 34.9476 31.821 35.143 31.821C35.3383 31.821 35.4967 31.9755 35.4967 32.166C35.4967 32.3566 35.3383 32.5111 35.143 32.5111Z" fill="#DB1B24"/>
<path d="M33.2843 35.8157C33.089 35.8157 32.9306 35.6612 32.9306 35.4707C32.9306 35.2801 33.089 35.1256 33.2843 35.1256C33.4796 35.1256 33.638 35.2801 33.638 35.4707C33.638 35.6612 33.4796 35.8157 33.2843 35.8157Z" fill="#DB1B24"/>
<path d="M32.9306 34.0403C32.7353 34.0403 32.5769 33.8858 32.5769 33.6952C32.5769 33.5047 32.7353 33.3502 32.9306 33.3502C33.1259 33.3502 33.2843 33.5047 33.2843 33.6952C33.2843 33.8858 33.1259 34.0403 32.9306 34.0403Z" fill="#DB1B24"/>
<path d="M30.5193 38.0432C30.3239 38.0432 30.1656 37.8887 30.1656 37.6981C30.1656 37.5075 30.3239 37.353 30.5193 37.353C30.7146 37.353 30.873 37.5075 30.873 37.6981C30.873 37.8887 30.7146 38.0432 30.5193 38.0432Z" fill="#DB1B24"/>
<path d="M37.5565 36.7258C37.3612 36.7258 37.2028 36.5714 37.2028 36.3808C37.2028 36.1902 37.3612 36.0357 37.5565 36.0357C37.7518 36.0357 37.9102 36.1902 37.9102 36.3808C37.9102 36.5714 37.7518 36.7258 37.5565 36.7258Z" fill="#DB1B24"/>
<path d="M34.2136 37.4816C33.8957 37.4816 33.638 37.2301 33.638 36.92C33.638 36.6098 33.8957 36.3584 34.2136 36.3584C34.5316 36.3584 34.7893 36.6098 34.7893 36.92C34.7893 37.2301 34.5316 37.4816 34.2136 37.4816Z" fill="#DB1B24"/>
<path d="M36.6826 38.0431C36.3647 38.0431 36.107 37.7917 36.107 37.4816C36.107 37.1714 36.3647 36.92 36.6826 36.92C37.0005 36.92 37.2582 37.1714 37.2582 37.4816C37.2582 37.7917 37.0005 38.0431 36.6826 38.0431Z" fill="#DB1B24"/>
<path d="M31.6476 36.9389C31.3297 36.9389 31.0719 36.6875 31.0719 36.3774C31.0719 36.0672 31.3297 35.8158 31.6476 35.8158C31.9655 35.8158 32.2232 36.0672 32.2232 36.3774C32.2232 36.6875 31.9655 36.9389 31.6476 36.9389Z" fill="#DB1B24"/>
<path d="M32.5769 38.2137C32.3816 38.2137 32.2232 38.0592 32.2232 37.8686C32.2232 37.678 32.3816 37.5235 32.5769 37.5235C32.7722 37.5235 32.9306 37.678 32.9306 37.8686C32.9306 38.0592 32.7722 38.2137 32.5769 38.2137Z" fill="#DB1B24"/>
<path fill-rule="evenodd" clip-rule="evenodd" d="M7.77123 30.9543C7.77123 30.648 8.01956 30.3996 8.32589 30.3996H29.1256C29.4319 30.3996 29.6802 30.648 29.6802 30.9543C29.6802 31.2606 29.4319 31.509 29.1256 31.509H8.88054V35.3916C8.88054 35.6979 8.63222 35.9462 8.32589 35.9462C8.01956 35.9462 7.77123 35.6979 7.77123 35.3916V30.9543Z" fill="#FE666D"/>
<path d="M26.4432 23.8298H19.4758V22.4475L22.764 18.9428C23.2155 18.4495 23.5483 18.0189 23.7624 17.6513C23.9811 17.2836 24.0905 16.9345 24.0905 16.604C24.0905 16.1526 23.9765 15.7989 23.7484 15.5429C23.5204 15.2822 23.1946 15.1519 22.771 15.1519C22.3149 15.1519 21.9542 15.3102 21.6889 15.6266C21.4283 15.9385 21.298 16.3504 21.298 16.8624H19.2734C19.2734 16.2433 19.42 15.6778 19.7132 15.1659C20.0111 14.6539 20.4299 14.2536 20.9698 13.9651C21.5097 13.6719 22.1218 13.5253 22.8059 13.5253C23.8531 13.5253 24.6653 13.7766 25.2424 14.2792C25.8242 14.7819 26.1151 15.4917 26.1151 16.4086C26.1151 16.9112 25.9848 17.4232 25.7241 17.9445C25.4635 18.4657 25.0167 19.0731 24.3837 19.7666L22.0729 22.2031H26.4432V23.8298Z" fill="#D9EAEF"/>
<path fill-rule="evenodd" clip-rule="evenodd" d="M27.6347 23.8298C27.6347 24.4878 27.1013 25.0213 26.4432 25.0213H19.4758C18.8178 25.0213 18.2843 24.4878 18.2843 23.8298V22.4475C18.2843 22.1446 18.3997 21.8531 18.6069 21.6322L21.8899 18.1331C22.3098 17.6738 22.579 17.3156 22.7327 17.0517L22.7384 17.0421C22.8792 16.8055 22.899 16.6656 22.899 16.604C22.899 16.4767 22.8827 16.4023 22.871 16.3657C22.869 16.3595 22.8671 16.3543 22.8654 16.3501C22.8463 16.3468 22.8158 16.3434 22.771 16.3434C22.6819 16.3434 22.6446 16.3584 22.6371 16.3617C22.6324 16.3638 22.6292 16.3657 22.6257 16.3683C22.6221 16.371 22.6142 16.3776 22.6026 16.3914C22.5635 16.4384 22.4894 16.5567 22.4894 16.8624C22.4894 17.5204 21.956 18.0538 21.298 18.0538H19.2734C18.6153 18.0538 18.0819 17.5204 18.0819 16.8624C18.0819 16.0462 18.2776 15.275 18.6793 14.5737L18.6833 14.5667C19.0955 13.8582 19.6783 13.3051 20.4047 12.9161C21.1373 12.519 21.9475 12.3338 22.8059 12.3338C24.0337 12.3338 25.1608 12.629 26.0232 13.3792C26.9164 14.1519 27.3066 15.2195 27.3066 16.4086C27.3066 17.1236 27.12 17.817 26.7898 18.4773C26.4595 19.138 25.9315 19.8382 25.2637 20.5699C25.2586 20.5755 25.2535 20.581 25.2482 20.5865L24.8451 21.0116H26.4432C27.1013 21.0116 27.6347 21.5451 27.6347 22.2031V23.8298ZM22.0729 22.2031L24.3837 19.7666C25.0167 19.0731 25.4635 18.4657 25.7241 17.9445C25.9848 17.4232 26.1151 16.9112 26.1151 16.4086C26.1151 15.4917 25.8242 14.7819 25.2424 14.2792C24.6653 13.7766 23.8531 13.5253 22.8059 13.5253C22.1218 13.5253 21.5097 13.6719 20.9698 13.9651C20.4299 14.2536 20.0111 14.6539 19.7132 15.1659C19.6199 15.3288 19.5414 15.4971 19.4778 15.6709C19.3415 16.0431 19.2734 16.4403 19.2734 16.8624H21.298C21.298 16.3504 21.4283 15.9385 21.6889 15.6266C21.9542 15.3102 22.3149 15.1519 22.771 15.1519C23.1946 15.1519 23.5204 15.2822 23.7484 15.5429C23.9765 15.7989 24.0905 16.1526 24.0905 16.604C24.0905 16.9345 23.9811 17.2836 23.7624 17.6513C23.5483 18.0189 23.2155 18.4495 22.764 18.9428L19.4758 22.4475V23.8298H26.4432V22.2031H22.0729Z" fill="#81A5B0"/>
</svg>
