<svg width="51" height="51" viewBox="0 0 51 51" fill="none" xmlns="http://www.w3.org/2000/svg">
<path d="M51 32.7838L47.5141 30.7086V33.0786L51 33.9558V32.7838Z" fill="#A50E0E"/>
<path d="M0 32.7838L3.4862 30.7086V33.0786L0 33.9558V32.7838Z" fill="#A50E0E"/>
<path d="M3.4862 12.75V38.25L25.5001 51L47.5141 38.25V12.75L25.5001 0L3.4862 12.75Z" fill="#ECB20C"/>
<path d="M17.5075 21.0979L25.5001 5.49908V0L3.4862 12.75L17.5075 21.0979Z" fill="url(#paint0_linear_1_177)"/>
<path d="M35.9147 30.7086L25.5001 45.5009V51L47.5141 38.25L42.7665 35.5003L35.9147 30.7086Z" fill="url(#paint1_linear_1_177)"/>
<path d="M25.1195 38.9704L8.23349 35.5004L3.4862 38.25L25.5001 51V45.501L25.1195 38.9704Z" fill="url(#paint2_linear_1_177)"/>
<path d="M25.8763 12.2617L42.7665 15.4997L47.5141 12.75L25.5001 0V5.49908L25.8763 12.2617Z" fill="url(#paint3_linear_1_177)"/>
<path d="M18.2685 30.0342L8.9462 15.9487L3.4862 12.75V38.25L8.23349 35.5003L18.2685 30.0342Z" fill="url(#paint4_linear_1_177)"/>
<path d="M32.7315 30.0342L42.0538 15.9487L47.5141 12.75V38.25L42.7665 35.5003L32.7315 30.0342Z" fill="url(#paint5_linear_1_177)"/>
<path d="M8.23349 15.4997V35.5003L25.5001 45.5009L42.7665 35.5003V15.4997L25.5001 5.49908L8.23349 15.4997Z" fill="url(#paint6_linear_1_177)"/>
<path d="M16.5144 39.6579H2.19292C0.981817 39.6579 0 38.7712 0 37.6776V32.6398H14.1439C15.453 32.6398 16.5144 33.5981 16.5144 34.7805V39.6579V39.6579Z" fill="url(#paint7_linear_1_177)"/>
<path d="M48.8071 40.0965H34.4856V35.2191C34.4856 34.0369 35.5468 33.0784 36.8561 33.0784H51V38.1162C51 39.2098 50.0182 40.0965 48.8071 40.0965Z" fill="url(#paint8_linear_1_177)"/>
<path d="M38.8796 43.6055H12.1204C11.4622 43.6055 10.9288 43.1236 10.9288 42.5294V35.0319C10.9288 34.4375 11.4624 33.9558 12.1204 33.9558H38.8799C39.5381 33.9558 40.0715 34.4378 40.0715 35.0319V42.5294C40.0715 43.1238 39.5378 43.6055 38.8796 43.6055Z" fill="url(#paint9_linear_1_177)"/>
<path d="M25.5001 45.7988C29.7922 45.7988 33.2717 42.6567 33.2717 38.7807C33.2717 34.9047 29.7922 31.7626 25.5001 31.7626C21.2081 31.7626 17.7286 34.9047 17.7286 38.7807C17.7286 42.6567 21.2081 45.7988 25.5001 45.7988Z" fill="#F6F6F8"/>
<path d="M25.5001 44.4697C28.9794 44.4697 31.7999 41.9226 31.7999 38.7807C31.7999 35.6387 28.9794 33.0916 25.5001 33.0916C22.0209 33.0916 19.2004 35.6387 19.2004 38.7807C19.2004 41.9226 22.0209 44.4697 25.5001 44.4697Z" fill="url(#paint10_linear_1_177)"/>
<path d="M25.5001 34.5313L27.0289 37.3289L30.4479 37.7775L27.974 39.9552L28.558 43.0299L25.5001 41.5782L22.442 43.0299L23.0263 39.9552L20.5524 37.7775L23.9711 37.3289L25.5001 34.5313Z" fill="#57E0EA"/>
<path d="M25.5001 34.5313L25.6989 38.6906L27.0289 37.3289L28.7384 37.5531L30.4479 37.7775L25.6989 38.6906L27.974 39.9552L28.266 41.4926L28.558 43.0299L25.6989 38.6906L25.5001 41.5782L23.9711 42.3042L22.442 43.0299L25.6989 38.6906L23.0263 39.9552L21.7892 38.8663L20.5524 37.7775L25.6989 38.6906L23.9711 37.3289L24.7355 35.93L25.5001 34.5313Z" fill="#5483F7"/>
<path d="M12.9833 15.5685L13.3998 14.0637C13.4532 13.8707 13.5639 13.6943 13.7197 13.5535C13.8756 13.4127 14.071 13.3128 14.2848 13.2646L15.9511 12.8885C15.996 12.8783 15.996 12.8206 15.9511 12.8107L14.2848 12.4346C14.071 12.3864 13.8756 12.2864 13.7197 12.1456C13.5639 12.0049 13.4532 11.8284 13.3998 11.6354L12.9833 10.1306C12.972 10.0901 12.9082 10.0901 12.8972 10.1306L12.4807 11.6354C12.4273 11.8284 12.3166 12.0049 12.1608 12.1456C12.0049 12.2864 11.8095 12.3864 11.5957 12.4346L9.92943 12.8107C9.88453 12.8209 9.88453 12.8785 9.92943 12.8885L11.5957 13.2646C11.8095 13.3128 12.0049 13.4127 12.1608 13.5535C12.3166 13.6943 12.4273 13.8707 12.4807 14.0637L12.8972 15.5685C12.9085 15.609 12.9723 15.609 12.9833 15.5685Z" fill="white"/>
<path d="M42.6592 32.0737L42.9715 30.945C43.0116 30.8002 43.0946 30.6679 43.2115 30.5623C43.3284 30.4567 43.475 30.3817 43.6354 30.3455L44.8852 30.0633C44.9188 30.0556 44.9188 30.0125 44.8852 30.0049L43.6354 29.7226C43.475 29.6864 43.3284 29.6114 43.2115 29.5058C43.0946 29.4003 43.0116 29.2679 42.9715 29.1231L42.6592 27.9944C42.6507 27.9641 42.603 27.9641 42.5945 27.9944L42.2822 29.1231C42.2421 29.2679 42.1591 29.4003 42.0422 29.5058C41.9253 29.6114 41.7788 29.6864 41.6184 29.7226L40.3686 30.0049C40.335 30.0125 40.335 30.0556 40.3686 30.0633L41.6184 30.3455C41.7788 30.3817 41.9253 30.4567 42.0422 30.5623C42.1591 30.6679 42.2421 30.8002 42.2822 30.945L42.5945 32.0737C42.603 32.104 42.6507 32.104 42.6592 32.0737Z" fill="white"/>
<path d="M20.3366 26.9642C24.125 23.856 26.6712 21.3726 26.6712 19.3848C26.6712 18.1341 25.8983 17.454 24.6957 17.454C23.6574 17.454 22.8413 18.0787 22.1297 18.7782L20.1525 17.0121C21.6404 15.595 23.0254 14.8971 25.185 14.8971C28.1175 14.8971 30.1545 16.5898 30.1545 19.202C30.1545 21.5567 27.9136 24.1495 25.5913 26.266C26.3461 26.1732 27.3844 26.0816 28.0562 26.0816H30.8478V28.8407H20.3366V26.9642Z" fill="#5271E5"/>
<defs>
<linearGradient id="paint0_linear_1_177" x1="14.5627" y1="6.45272" x2="17.4498" y2="10.4031" gradientUnits="userSpaceOnUse">
<stop stop-color="#98EEFF"/>
<stop offset="1" stop-color="#5EA9D3"/>
</linearGradient>
<linearGradient id="paint1_linear_1_177" x1="35.8297" y1="43.7437" x2="33.7844" y2="40.2657" gradientUnits="userSpaceOnUse">
<stop stop-color="#98EEFF"/>
<stop offset="1" stop-color="#5EA9D3"/>
</linearGradient>
<linearGradient id="paint2_linear_1_177" x1="14.1948" y1="44.9092" x2="17.7227" y2="40.7885" gradientUnits="userSpaceOnUse">
<stop stop-color="#4F7EEF"/>
<stop offset="1" stop-color="#5C9AFA"/>
</linearGradient>
<linearGradient id="paint3_linear_1_177" x1="36.7199" y1="6.17941" x2="33.1955" y2="10.3456" gradientUnits="userSpaceOnUse">
<stop stop-color="#4F7EEF"/>
<stop offset="1" stop-color="#5C9AFA"/>
</linearGradient>
<linearGradient id="paint4_linear_1_177" x1="3.48609" y1="25.5" x2="8.92429" y2="25.5" gradientUnits="userSpaceOnUse">
<stop stop-color="#376CD2"/>
<stop offset="1" stop-color="#4D8CE0"/>
</linearGradient>
<linearGradient id="paint5_linear_1_177" x1="47.5141" y1="25.5" x2="42.0759" y2="25.5" gradientUnits="userSpaceOnUse">
<stop stop-color="#376CD2"/>
<stop offset="1" stop-color="#4D8CE0"/>
</linearGradient>
<linearGradient id="paint6_linear_1_177" x1="25.5" y1="45.5009" x2="25.5" y2="5.49916" gradientUnits="userSpaceOnUse">
<stop stop-color="#80BDE4"/>
<stop offset="1" stop-color="#C5EAFA"/>
</linearGradient>
<linearGradient id="paint7_linear_1_177" x1="0" y1="36.1489" x2="16.5143" y2="36.1489" gradientUnits="userSpaceOnUse">
<stop stop-color="#BE4244"/>
<stop offset="1" stop-color="#D33730"/>
</linearGradient>
<linearGradient id="paint8_linear_1_177" x1="34.4858" y1="36.5875" x2="51.0001" y2="36.5875" gradientUnits="userSpaceOnUse">
<stop stop-color="#BE4244"/>
<stop offset="1" stop-color="#D33730"/>
</linearGradient>
<linearGradient id="paint9_linear_1_177" x1="25.5" y1="43.6055" x2="25.5" y2="33.9557" gradientUnits="userSpaceOnUse">
<stop stop-color="#FF544A"/>
<stop offset="1" stop-color="#F7726E"/>
</linearGradient>
<linearGradient id="paint10_linear_1_177" x1="25.5" y1="44.4697" x2="25.5" y2="33.0916" gradientUnits="userSpaceOnUse">
<stop stop-color="#80BDE4"/>
<stop offset="1" stop-color="#C5EAFA"/>
</linearGradient>
</defs>
</svg>
