<svg width="46" height="43" viewBox="0 0 46 43" fill="none" xmlns="http://www.w3.org/2000/svg">
<path d="M40.704 19.0638C40.704 28.8664 32.7574 36.8129 22.9549 36.8129C13.1523 36.8129 5.20581 28.8664 5.20581 19.0638C5.20581 9.26127 13.1523 1.31475 22.9549 1.31475C32.7574 1.31475 40.704 9.26127 40.704 19.0638Z" fill="#DCA16A"/>
<path fill-rule="evenodd" clip-rule="evenodd" d="M42.0187 19.0638C42.0187 29.5925 33.4835 38.1276 22.9549 38.1276C12.4262 38.1276 3.89107 29.5925 3.89107 19.0638C3.89107 8.53516 12.4262 0 22.9549 0C33.4835 0 42.0187 8.53516 42.0187 19.0638ZM22.9549 36.8129C32.7574 36.8129 40.704 28.8664 40.704 19.0638C40.704 9.26127 32.7574 1.31475 22.9549 1.31475C13.1523 1.31475 5.20581 9.26127 5.20581 19.0638C5.20581 28.8664 13.1523 36.8129 22.9549 36.8129Z" fill="#C38144"/>
<path fill-rule="evenodd" clip-rule="evenodd" d="M6.52056 19.7212C6.1575 19.7212 5.86319 19.4269 5.86319 19.0638C5.86319 9.62433 13.5154 1.97212 22.9549 1.97212C23.3179 1.97212 23.6123 2.26643 23.6123 2.62949C23.6123 2.99255 23.3179 3.28686 22.9549 3.28686C14.2415 3.28686 7.17793 10.3504 7.17793 19.0638C7.17793 19.4269 6.88362 19.7212 6.52056 19.7212Z" fill="#F0B57F"/>
<path fill-rule="evenodd" clip-rule="evenodd" d="M39.3892 18.4064C39.7523 18.4064 40.0466 18.7008 40.0466 19.0638C40.0466 28.5033 32.3944 36.1555 22.9549 36.1555C22.5918 36.1555 22.2975 35.8612 22.2975 35.4981C22.2975 35.1351 22.5918 34.8408 22.9549 34.8408C31.6683 34.8408 38.7318 27.7772 38.7318 19.0638C38.7318 18.7008 39.0261 18.4064 39.3892 18.4064Z" fill="#CF945D"/>
<path d="M36.1023 19.0638C36.1023 26.325 30.216 32.2113 22.9549 32.2113C15.6937 32.2113 9.80743 26.325 9.80743 19.0638C9.80743 11.8027 15.6937 5.91636 22.9549 5.91636C30.216 5.91636 36.1023 11.8027 36.1023 19.0638Z" fill="#F7BA82"/>
<path fill-rule="evenodd" clip-rule="evenodd" d="M37.4171 19.0638C37.4171 27.0511 30.9421 33.526 22.9549 33.526C14.9676 33.526 8.49268 27.0511 8.49268 19.0638C8.49268 11.0766 14.9676 4.60161 22.9549 4.60161C30.9421 4.60161 37.4171 11.0766 37.4171 19.0638ZM22.9549 32.2113C30.216 32.2113 36.1023 26.325 36.1023 19.0638C36.1023 11.8027 30.216 5.91636 22.9549 5.91636C15.6937 5.91636 9.80743 11.8027 9.80743 19.0638C9.80743 26.325 15.6937 32.2113 22.9549 32.2113Z" fill="#C38144"/>
<path fill-rule="evenodd" clip-rule="evenodd" d="M22.9549 30.2392C29.1269 30.2392 34.1302 25.2358 34.1302 19.0638C34.1302 18.7008 34.4245 18.4064 34.7876 18.4064C35.1507 18.4064 35.445 18.7008 35.445 19.0638C35.445 25.9619 29.853 31.5539 22.9549 31.5539C22.5918 31.5539 22.2975 31.2596 22.2975 30.8965C22.2975 30.5335 22.5918 30.2392 22.9549 30.2392Z" fill="#E6A66C"/>
<path fill-rule="evenodd" clip-rule="evenodd" d="M22.9549 7.88848C16.7829 7.88848 11.7795 12.8918 11.7795 19.0638C11.7795 19.4269 11.4852 19.7212 11.1222 19.7212C10.7591 19.7212 10.4648 19.4269 10.4648 19.0638C10.4648 12.1657 16.0568 6.57373 22.9549 6.57373C23.3179 6.57373 23.6123 6.86805 23.6123 7.2311C23.6123 7.59416 23.3179 7.88848 22.9549 7.88848Z" fill="#FFD5AE"/>
<path d="M2.86327 36.5648L1.17002 33.1783C0.985625 32.8095 1.2538 32.3756 1.66612 32.3756H9.08854C9.39487 32.3756 9.6432 32.6239 9.6432 32.9303V40.6955C9.6432 41.0018 9.39487 41.2502 9.08854 41.2502H1.66612C1.2538 41.2502 0.985625 40.8162 1.17002 40.4474L2.86327 37.0609C2.94135 36.9048 2.94135 36.721 2.86327 36.5648Z" fill="#C52229"/>
<path d="M43.0467 36.5648L44.74 33.1783C44.9244 32.8095 44.6562 32.3756 44.2439 32.3756H36.8215C36.5151 32.3756 36.2668 32.6239 36.2668 32.9303V40.6955C36.2668 41.0018 36.5151 41.2502 36.8215 41.2502H44.2439C44.6562 41.2502 44.9244 40.8162 44.74 40.4474L43.0467 37.0609C42.9687 36.9048 42.9687 36.721 43.0467 36.5648Z" fill="#C52229"/>
<path fill-rule="evenodd" clip-rule="evenodd" d="M1.74704 36.8129L0.177817 33.6744C-0.375368 32.5681 0.429143 31.2663 1.66612 31.2663H9.08854C10.0075 31.2663 10.7525 32.0113 10.7525 32.9303V40.6955C10.7525 41.6145 10.0075 42.3595 9.08854 42.3595H1.66612C0.429142 42.3595 -0.375369 41.0577 0.177817 39.9513L1.74704 36.8129ZM44.163 36.8129L45.7322 33.6744C46.2854 32.5681 45.4809 31.2663 44.2439 31.2663H36.8215C35.9025 31.2663 35.1575 32.0113 35.1575 32.9303V40.6955C35.1575 41.6145 35.9025 42.3595 36.8215 42.3595H44.2439C45.4809 42.3595 46.2854 41.0577 45.7322 39.9513L44.163 36.8129ZM44.74 33.1783L43.0467 36.5648C42.9687 36.721 42.9687 36.9048 43.0467 37.0609L44.74 40.4474C44.9244 40.8162 44.6562 41.2502 44.2439 41.2502H36.8215C36.5151 41.2502 36.2668 41.0018 36.2668 40.6955V32.9303C36.2668 32.6239 36.5151 32.3756 36.8215 32.3756H44.2439C44.6562 32.3756 44.9244 32.8095 44.74 33.1783ZM1.17002 33.1783L2.86327 36.5648C2.94135 36.721 2.94135 36.9048 2.86327 37.0609L1.17002 40.4474C0.985625 40.8162 1.2538 41.2502 1.66612 41.2502H9.08854C9.39487 41.2502 9.6432 41.0018 9.6432 40.6955V32.9303C9.6432 32.6239 9.39487 32.3756 9.08854 32.3756H1.66612C1.2538 32.3756 0.985625 32.8095 1.17002 33.1783Z" fill="#9B0F15"/>
<path fill-rule="evenodd" clip-rule="evenodd" d="M1.9634 32.8772C2.06497 32.716 2.24214 32.6183 2.43264 32.6183H4.78994C5.09627 32.6183 5.3446 32.8666 5.3446 33.1729C5.3446 33.4793 5.09627 33.7276 4.78994 33.7276H3.31274L4.45833 36.1229C4.5905 36.3993 4.47361 36.7304 4.19726 36.8626C3.92091 36.9948 3.58974 36.8779 3.45758 36.6015L1.93226 33.4123C1.85007 33.2404 1.86183 33.0384 1.9634 32.8772Z" fill="#DF3840"/>
<path d="M38.4854 38.4769V30.7116C38.4854 30.4053 38.2371 30.157 37.9308 30.157L7.97922 30.157C7.6729 30.157 7.42457 30.4053 7.42457 30.7116L7.42457 38.4769C7.42457 38.7832 7.67289 39.0315 7.97922 39.0315L37.9308 39.0315C38.2371 39.0315 38.4854 38.7832 38.4854 38.4769Z" fill="#F1333B"/>
<path fill-rule="evenodd" clip-rule="evenodd" d="M39.5948 30.7116V38.4769C39.5948 39.3959 38.8498 40.1408 37.9308 40.1408H7.97922C7.06024 40.1408 6.31525 39.3958 6.31525 38.4769L6.31525 30.7116C6.31525 29.7927 7.06024 29.0477 7.97922 29.0477L37.9308 29.0477C38.8498 29.0477 39.5948 29.7927 39.5948 30.7116ZM38.4854 30.7116V38.4769C38.4854 38.7832 38.2371 39.0315 37.9308 39.0315L7.97922 39.0315C7.67289 39.0315 7.42457 38.7832 7.42457 38.4769L7.42457 30.7116C7.42457 30.4053 7.6729 30.157 7.97922 30.157L37.9308 30.157C38.2371 30.157 38.4854 30.4053 38.4854 30.7116Z" fill="#9B0F15"/>
<path d="M36.9531 34.8049C36.639 34.8049 36.3844 34.5565 36.3844 34.2501C36.3844 33.9436 36.639 33.6952 36.9531 33.6952C37.2672 33.6952 37.5218 33.9436 37.5218 34.2501C37.5218 34.5565 37.2672 34.8049 36.9531 34.8049Z" fill="#DB1B24"/>
<path d="M34.7893 34.5829C34.3986 34.5829 34.0819 34.2739 34.0819 33.8928C34.0819 33.5116 34.3986 33.2026 34.7893 33.2026C35.18 33.2026 35.4967 33.5116 35.4967 33.8928C35.4967 34.2739 35.18 34.5829 34.7893 34.5829Z" fill="#DB1B24"/>
<path d="M35.7533 36.1608C35.5579 36.1608 35.3996 36.0063 35.3996 35.8157C35.3996 35.6252 35.5579 35.4707 35.7533 35.4707C35.9486 35.4707 36.107 35.6252 36.107 35.8157C36.107 36.0063 35.9486 36.1608 35.7533 36.1608Z" fill="#DB1B24"/>
<path d="M35.143 32.5111C34.9476 32.5111 34.7893 32.3566 34.7893 32.166C34.7893 31.9755 34.9476 31.821 35.143 31.821C35.3383 31.821 35.4967 31.9755 35.4967 32.166C35.4967 32.3566 35.3383 32.5111 35.143 32.5111Z" fill="#DB1B24"/>
<path d="M33.2843 35.8157C33.089 35.8157 32.9306 35.6612 32.9306 35.4707C32.9306 35.2801 33.089 35.1256 33.2843 35.1256C33.4796 35.1256 33.638 35.2801 33.638 35.4707C33.638 35.6612 33.4796 35.8157 33.2843 35.8157Z" fill="#DB1B24"/>
<path d="M32.9306 34.0403C32.7353 34.0403 32.5769 33.8858 32.5769 33.6952C32.5769 33.5047 32.7353 33.3502 32.9306 33.3502C33.1259 33.3502 33.2843 33.5047 33.2843 33.6952C33.2843 33.8858 33.1259 34.0403 32.9306 34.0403Z" fill="#DB1B24"/>
<path d="M30.5193 38.0432C30.3239 38.0432 30.1656 37.8887 30.1656 37.6981C30.1656 37.5075 30.3239 37.353 30.5193 37.353C30.7146 37.353 30.873 37.5075 30.873 37.6981C30.873 37.8887 30.7146 38.0432 30.5193 38.0432Z" fill="#DB1B24"/>
<path d="M37.5565 36.7258C37.3612 36.7258 37.2028 36.5714 37.2028 36.3808C37.2028 36.1902 37.3612 36.0357 37.5565 36.0357C37.7518 36.0357 37.9102 36.1902 37.9102 36.3808C37.9102 36.5714 37.7518 36.7258 37.5565 36.7258Z" fill="#DB1B24"/>
<path d="M34.2136 37.4816C33.8957 37.4816 33.638 37.2301 33.638 36.92C33.638 36.6098 33.8957 36.3584 34.2136 36.3584C34.5316 36.3584 34.7893 36.6098 34.7893 36.92C34.7893 37.2301 34.5316 37.4816 34.2136 37.4816Z" fill="#DB1B24"/>
<path d="M36.6826 38.0431C36.3647 38.0431 36.107 37.7917 36.107 37.4816C36.107 37.1714 36.3647 36.92 36.6826 36.92C37.0005 36.92 37.2582 37.1714 37.2582 37.4816C37.2582 37.7917 37.0005 38.0431 36.6826 38.0431Z" fill="#DB1B24"/>
<path d="M31.6476 36.9389C31.3297 36.9389 31.0719 36.6875 31.0719 36.3774C31.0719 36.0672 31.3297 35.8158 31.6476 35.8158C31.9655 35.8158 32.2232 36.0672 32.2232 36.3774C32.2232 36.6875 31.9655 36.9389 31.6476 36.9389Z" fill="#DB1B24"/>
<path d="M32.5769 38.2137C32.3816 38.2137 32.2232 38.0592 32.2232 37.8686C32.2232 37.678 32.3816 37.5235 32.5769 37.5235C32.7722 37.5235 32.9306 37.678 32.9306 37.8686C32.9306 38.0592 32.7722 38.2137 32.5769 38.2137Z" fill="#DB1B24"/>
<path fill-rule="evenodd" clip-rule="evenodd" d="M7.77123 30.9543C7.77123 30.648 8.01956 30.3996 8.32589 30.3996H29.1256C29.4319 30.3996 29.6802 30.648 29.6802 30.9543C29.6802 31.2606 29.4319 31.509 29.1256 31.509H8.88054V35.3916C8.88054 35.6979 8.63222 35.9462 8.32589 35.9462C8.01956 35.9462 7.77123 35.6979 7.77123 35.3916V30.9543Z" fill="#FE666D"/>
<path d="M21.5283 17.8537H22.6035C23.1154 17.8537 23.4948 17.7257 23.7414 17.4697C23.9881 17.2138 24.1114 16.874 24.1114 16.4505C24.1114 16.0409 23.9881 15.7221 23.7414 15.494C23.4994 15.2659 23.1643 15.1519 22.7361 15.1519C22.3498 15.1519 22.0263 15.259 21.7657 15.4731C21.5051 15.6825 21.3747 15.9571 21.3747 16.2969H19.3571C19.3571 15.7663 19.4991 15.2915 19.783 14.8727C20.0716 14.4491 20.4718 14.1187 20.9838 13.8813C21.5004 13.6439 22.0682 13.5253 22.6872 13.5253C23.7624 13.5253 24.6048 13.7836 25.2145 14.3002C25.8242 14.8122 26.1291 15.5196 26.1291 16.4225C26.1291 16.888 25.9871 17.3161 25.7032 17.7071C25.4193 18.0981 25.047 18.3983 24.5862 18.6077C25.1587 18.8125 25.5845 19.1197 25.8638 19.5292C26.1477 19.9388 26.2896 20.4229 26.2896 20.9814C26.2896 21.8843 25.9592 22.608 25.2983 23.1526C24.642 23.6971 23.7717 23.9694 22.6872 23.9694C21.6726 23.9694 20.8418 23.7018 20.1949 23.1665C19.5526 22.6313 19.2315 21.9239 19.2315 21.0442H21.2491C21.2491 21.4258 21.391 21.7377 21.6749 21.9797C21.9635 22.2217 22.3172 22.3427 22.7361 22.3427C23.2155 22.3427 23.5902 22.2171 23.8601 21.9657C24.1347 21.7098 24.272 21.3723 24.272 20.9534C24.272 19.9388 23.7135 19.4315 22.5965 19.4315H21.5283V17.8537Z" fill="#FFD5AE"/>
<path fill-rule="evenodd" clip-rule="evenodd" d="M20.3939 17.4884H19.3571C18.6991 17.4884 18.1656 16.9549 18.1656 16.2969C18.1656 15.5402 18.3724 14.8302 18.7967 14.2042L18.7983 14.2018C19.2201 13.5827 19.7957 13.1188 20.4826 12.8003L20.4863 12.7986C21.1724 12.4834 21.912 12.3338 22.6872 12.3338C23.9456 12.3338 25.0936 12.6371 25.9827 13.3894C26.8987 14.1596 27.3206 15.2214 27.3206 16.4225C27.3206 17.1495 27.093 17.821 26.6673 18.4072C26.6397 18.4452 26.6116 18.4825 26.5829 18.5192C26.6767 18.6239 26.7644 18.7355 26.8456 18.8541C27.2823 19.4859 27.4811 20.2122 27.4811 20.9814C27.4811 22.2173 27.0088 23.2862 26.0576 24.0707C25.1351 24.8356 23.9717 25.1609 22.6872 25.1609C21.4554 25.1609 20.338 24.8314 19.4354 24.0846L19.4321 24.0819C18.5024 23.3071 18.04 22.2563 18.04 21.0442C18.04 20.3862 18.5734 19.8527 19.2315 19.8527H20.4134C20.3639 19.7218 20.3368 19.5798 20.3368 19.4315V17.8537C20.3368 17.7263 20.3569 17.6035 20.3939 17.4884ZM22.364 20.623C22.4135 20.7539 22.4406 20.8959 22.4406 21.0442C22.4406 21.0541 22.441 21.0618 22.4415 21.0673C22.4425 21.0682 22.4435 21.0692 22.4447 21.0702C22.4943 21.1107 22.5684 21.1512 22.7361 21.1512C22.8735 21.1512 22.9554 21.1331 22.9978 21.1188C23.0331 21.107 23.0447 21.097 23.0477 21.0942M22.364 20.623H22.5965C22.8926 20.623 23.0133 20.6739 23.0462 20.6916C23.047 20.6934 23.0478 20.6956 23.0487 20.6981C23.0599 20.7284 23.0805 20.806 23.0805 20.9534C23.0805 21.0318 23.068 21.0652 23.0654 21.0716C23.0638 21.0755 23.0626 21.0775 23.0615 21.0791C23.0604 21.0807 23.0564 21.0861 23.0477 21.0942M25.2983 23.1526C25.9592 22.608 26.2896 21.8843 26.2896 20.9814C26.2896 20.4229 26.1477 19.9388 25.8638 19.5292C25.8178 19.4618 25.7679 19.3972 25.7139 19.3353C25.4403 19.0213 25.0644 18.7788 24.5862 18.6077C25.0171 18.4118 25.3708 18.1365 25.647 17.7818C25.6661 17.7573 25.6848 17.7324 25.7032 17.7071C25.9871 17.3161 26.1291 16.888 26.1291 16.4225C26.1291 15.5196 25.8242 14.8122 25.2145 14.3002C24.6048 13.7836 23.7624 13.5253 22.6872 13.5253C22.0682 13.5253 21.5004 13.6439 20.9838 13.8813C20.4718 14.1187 20.0716 14.4491 19.783 14.8727C19.7317 14.9484 19.685 15.026 19.6429 15.1054C19.4524 15.4651 19.3571 15.8622 19.3571 16.2969H21.3747C21.3747 15.9571 21.5051 15.6825 21.7657 15.4731C22.0263 15.259 22.3498 15.1519 22.7361 15.1519C23.1643 15.1519 23.4994 15.2659 23.7414 15.494C23.9881 15.7221 24.1114 16.0409 24.1114 16.4505C24.1114 16.874 23.9881 17.2138 23.7414 17.4697C23.4948 17.7257 23.1154 17.8537 22.6035 17.8537H21.5283V19.4315H22.5965C23.7135 19.4315 24.272 19.9388 24.272 20.9534C24.272 21.3723 24.1347 21.7098 23.8601 21.9657C23.5902 22.2171 23.2155 22.3427 22.7361 22.3427C22.3172 22.3427 21.9635 22.2217 21.6749 21.9797C21.391 21.7377 21.2491 21.4258 21.2491 21.0442H19.2315C19.2315 21.4845 19.3119 21.8817 19.4729 22.2357C19.6334 22.5889 19.8741 22.8992 20.1949 23.1665C20.8418 23.7018 21.6726 23.9694 22.6872 23.9694C23.7717 23.9694 24.642 23.6971 25.2983 23.1526ZM22.5092 16.6622C22.5392 16.5688 22.5581 16.4704 22.5641 16.3686C22.5956 16.3556 22.6477 16.3434 22.7361 16.3434C22.8311 16.3434 22.8869 16.3544 22.914 16.3621C22.917 16.3808 22.92 16.4095 22.92 16.4505C22.92 16.5469 22.906 16.5971 22.899 16.6164C22.8973 16.6209 22.8958 16.6246 22.8943 16.6276C22.8933 16.628 22.8922 16.6284 22.891 16.6288C22.8528 16.6416 22.7642 16.6622 22.6035 16.6622H22.5092Z" fill="#C28044"/>
</svg>
