<svg width="51" height="51" viewBox="0 0 51 51" fill="none" xmlns="http://www.w3.org/2000/svg">
<path d="M51 32.7838L47.5141 30.7086V33.0786L51 33.9558V32.7838Z" fill="#A50E0E"/>
<path d="M0 32.7838L3.4862 30.7086V33.0786L0 33.9558V32.7838Z" fill="#A50E0E"/>
<path d="M3.48621 12.75V38.25L25.5001 51L47.5141 38.25V12.75L25.5001 0L3.48621 12.75Z" fill="#ECB20C"/>
<path d="M17.5075 21.0979L25.5001 5.49908V0L3.48621 12.75L17.5075 21.0979Z" fill="url(#paint0_linear_1_200)"/>
<path d="M35.9147 30.7086L25.5002 45.5009V51L47.5141 38.25L42.7665 35.5003L35.9147 30.7086Z" fill="url(#paint1_linear_1_200)"/>
<path d="M25.1195 38.9704L8.23349 35.5004L3.48621 38.25L25.5001 51V45.501L25.1195 38.9704Z" fill="url(#paint2_linear_1_200)"/>
<path d="M25.8763 12.2617L42.7665 15.4997L47.5141 12.75L25.5002 0V5.49908L25.8763 12.2617Z" fill="url(#paint3_linear_1_200)"/>
<path d="M18.2685 30.0342L8.94621 15.9487L3.48621 12.75V38.25L8.23349 35.5003L18.2685 30.0342Z" fill="url(#paint4_linear_1_200)"/>
<path d="M32.7315 30.0342L42.0538 15.9487L47.5141 12.75V38.25L42.7665 35.5003L32.7315 30.0342Z" fill="url(#paint5_linear_1_200)"/>
<path d="M8.23349 15.4997V35.5003L25.5001 45.5009L42.7665 35.5003V15.4997L25.5001 5.49908L8.23349 15.4997Z" fill="url(#paint6_linear_1_200)"/>
<path d="M16.5144 39.6579H2.19292C0.981817 39.6579 0 38.7712 0 37.6776V32.6398H14.1439C15.453 32.6398 16.5144 33.5981 16.5144 34.7805V39.6579V39.6579Z" fill="url(#paint7_linear_1_200)"/>
<path d="M48.8071 40.0965H34.4856V35.2191C34.4856 34.0369 35.5468 33.0784 36.8561 33.0784H51V38.1162C51 39.2098 50.0182 40.0965 48.8071 40.0965Z" fill="url(#paint8_linear_1_200)"/>
<path d="M38.8796 43.6055H12.1204C11.4621 43.6055 10.9287 43.1236 10.9287 42.5294V35.0319C10.9287 34.4375 11.4624 33.9558 12.1204 33.9558H38.8799C39.5381 33.9558 40.0715 34.4378 40.0715 35.0319V42.5294C40.0715 43.1238 39.5378 43.6055 38.8796 43.6055Z" fill="url(#paint9_linear_1_200)"/>
<path d="M25.5002 45.7988C29.7922 45.7988 33.2717 42.6567 33.2717 38.7807C33.2717 34.9047 29.7922 31.7626 25.5002 31.7626C21.2081 31.7626 17.7286 34.9047 17.7286 38.7807C17.7286 42.6567 21.2081 45.7988 25.5002 45.7988Z" fill="#F6F6F8"/>
<path d="M25.5001 44.4697C28.9794 44.4697 31.7999 41.9226 31.7999 38.7807C31.7999 35.6387 28.9794 33.0916 25.5001 33.0916C22.0209 33.0916 19.2003 35.6387 19.2003 38.7807C19.2003 41.9226 22.0209 44.4697 25.5001 44.4697Z" fill="url(#paint10_linear_1_200)"/>
<path d="M25.5001 34.5313L27.0289 37.3289L30.4479 37.7775L27.974 39.9552L28.558 43.0299L25.5001 41.5782L22.442 43.0299L23.0263 39.9552L20.5524 37.7775L23.9711 37.3289L25.5001 34.5313Z" fill="#FFB05A"/>
<path d="M25.5001 34.5313L25.6989 38.6906L27.0289 37.3289L28.7384 37.5531L30.4479 37.7775L25.6989 38.6906L27.974 39.9552L28.266 41.4926L28.558 43.0299L25.6989 38.6906L25.5001 41.5782L23.9711 42.3042L22.442 43.0299L25.6989 38.6906L23.0263 39.9552L21.7892 38.8663L20.5524 37.7775L25.6989 38.6906L23.9711 37.3289L24.7355 35.93L25.5001 34.5313Z" fill="#D17A21"/>
<path d="M12.9833 15.5685L13.3998 14.0637C13.4532 13.8707 13.5639 13.6943 13.7197 13.5535C13.8756 13.4127 14.071 13.3128 14.2848 13.2646L15.9511 12.8885C15.996 12.8783 15.996 12.8206 15.9511 12.8107L14.2848 12.4346C14.071 12.3864 13.8756 12.2864 13.7197 12.1456C13.5639 12.0049 13.4532 11.8284 13.3998 11.6354L12.9833 10.1306C12.972 10.0901 12.9082 10.0901 12.8972 10.1306L12.4807 11.6354C12.4273 11.8284 12.3166 12.0049 12.1608 12.1456C12.0049 12.2864 11.8095 12.3864 11.5957 12.4346L9.92943 12.8107C9.88453 12.8209 9.88453 12.8785 9.92943 12.8885L11.5957 13.2646C11.8095 13.3128 12.0049 13.4127 12.1608 13.5535C12.3166 13.6943 12.4273 13.8707 12.4807 14.0637L12.8972 15.5685C12.9085 15.609 12.9723 15.609 12.9833 15.5685Z" fill="white"/>
<path d="M42.6592 32.0737L42.9715 30.945C43.0116 30.8002 43.0946 30.6679 43.2115 30.5623C43.3284 30.4567 43.475 30.3817 43.6354 30.3455L44.8852 30.0633C44.9188 30.0556 44.9188 30.0125 44.8852 30.0049L43.6354 29.7226C43.475 29.6864 43.3284 29.6114 43.2115 29.5058C43.0946 29.4003 43.0116 29.2679 42.9715 29.1231L42.6592 27.9944C42.6507 27.9641 42.603 27.9641 42.5945 27.9944L42.2822 29.1231C42.2421 29.2679 42.1591 29.4003 42.0422 29.5058C41.9253 29.6114 41.7788 29.6864 41.6184 29.7226L40.3686 30.0049C40.335 30.0125 40.335 30.0556 40.3686 30.0633L41.6184 30.3455C41.7788 30.3817 41.9253 30.4567 42.0422 30.5623C42.1591 30.6679 42.2421 30.8002 42.2822 30.945L42.5945 32.0737C42.603 32.104 42.6507 32.104 42.6592 32.0737Z" fill="white"/>
<path d="M20.1997 26.9629L21.8397 24.9393C22.7388 25.7157 23.7793 26.2395 24.9391 26.2395C26.3201 26.2395 27.2192 25.716 27.2192 24.7054C27.2192 23.5495 26.5401 22.8625 23.4196 22.8625V20.605C25.9601 20.605 26.7598 19.9005 26.7598 18.8343C26.7598 17.9137 26.1606 17.4076 25.0596 17.4076C24.0597 17.4076 23.299 17.8222 22.4002 18.5268L20.599 16.5589C21.98 15.5104 23.4605 14.8971 25.2192 14.8971C28.3004 14.8971 30.32 16.1973 30.32 18.5989C30.32 19.9359 29.5203 20.9845 27.9195 21.5625V21.6523C29.5807 22.1039 30.8006 23.1877 30.8006 24.9217C30.8006 27.4321 28.2601 28.841 25.2991 28.841C22.939 28.841 21.2795 28.0997 20.1997 26.9629Z" fill="#D56E1F"/>
<defs>
<linearGradient id="paint0_linear_1_200" x1="14.4699" y1="6.34914" x2="17.2491" y2="10.1496" gradientUnits="userSpaceOnUse">
<stop stop-color="#EFEDB3"/>
<stop offset="1" stop-color="#F8AB30"/>
</linearGradient>
<linearGradient id="paint1_linear_1_200" x1="36.1604" y1="44.1943" x2="34.1152" y2="40.7163" gradientUnits="userSpaceOnUse">
<stop stop-color="#F8AB30"/>
<stop offset="1" stop-color="#EFEDB3"/>
</linearGradient>
<linearGradient id="paint2_linear_1_200" x1="14.063" y1="45.1271" x2="18.7326" y2="38.4429" gradientUnits="userSpaceOnUse">
<stop stop-color="#E1783A"/>
<stop offset="1" stop-color="#EB9130"/>
</linearGradient>
<linearGradient id="paint3_linear_1_200" x1="36.7224" y1="6.17458" x2="33.1981" y2="10.3407" gradientUnits="userSpaceOnUse">
<stop stop-color="#E1783A"/>
<stop offset="1" stop-color="#EB9130"/>
</linearGradient>
<linearGradient id="paint4_linear_1_200" x1="3.48609" y1="25.5" x2="9.00793" y2="25.5" gradientUnits="userSpaceOnUse">
<stop stop-color="#E46F26"/>
<stop offset="1" stop-color="#FFA835"/>
</linearGradient>
<linearGradient id="paint5_linear_1_200" x1="47.5141" y1="25.5" x2="42.0759" y2="25.5" gradientUnits="userSpaceOnUse">
<stop stop-color="#E46F26"/>
<stop offset="1" stop-color="#FFA835"/>
</linearGradient>
<linearGradient id="paint6_linear_1_200" x1="25.5" y1="45.5009" x2="25.5" y2="5.49916" gradientUnits="userSpaceOnUse">
<stop stop-color="#ED9448"/>
<stop offset="1" stop-color="#F5CC75"/>
</linearGradient>
<linearGradient id="paint7_linear_1_200" x1="0" y1="36.1489" x2="16.5143" y2="36.1489" gradientUnits="userSpaceOnUse">
<stop stop-color="#BE4244"/>
<stop offset="1" stop-color="#D33730"/>
</linearGradient>
<linearGradient id="paint8_linear_1_200" x1="34.4858" y1="36.5875" x2="51.0001" y2="36.5875" gradientUnits="userSpaceOnUse">
<stop stop-color="#BE4244"/>
<stop offset="1" stop-color="#D33730"/>
</linearGradient>
<linearGradient id="paint9_linear_1_200" x1="25.5" y1="43.6055" x2="25.5" y2="33.9557" gradientUnits="userSpaceOnUse">
<stop stop-color="#FF544A"/>
<stop offset="1" stop-color="#F7726E"/>
</linearGradient>
<linearGradient id="paint10_linear_1_200" x1="25.5" y1="44.4697" x2="25.5" y2="33.0916" gradientUnits="userSpaceOnUse">
<stop stop-color="#ED9448"/>
<stop offset="1" stop-color="#F5CC75"/>
</linearGradient>
</defs>
</svg>
